<svg width="21" height="16" viewBox="0 0 21 16" fill="none" xmlns="http://www.w3.org/2000/svg">
<path id="10" d="M6.12189 0.198686V14.7441H3.48695L3.48695 2.76261H3.40172L-0.000266328 4.9359V2.52113L3.61479 0.198686L6.12189 0.198686ZM15.1915 15.0211C14.022 15.0211 13.0182 14.7252 12.1801 14.1333C11.3468 13.5368 10.7052 12.6774 10.2554 11.5552C9.81034 10.4283 9.5878 9.07179 9.5878 7.48562C9.59254 5.89944 9.81744 4.55001 10.2625 3.43732C10.7123 2.3199 11.3539 1.46763 12.1872 0.880504C13.0253 0.293383 14.0267 -0.000178099 15.1915 -0.000178099C16.3563 -0.000178099 17.3577 0.293383 18.1958 0.880504C19.0338 1.46763 19.6754 2.3199 20.1205 3.43732C20.5703 4.55475 20.7952 5.90418 20.7952 7.48562C20.7952 9.07653 20.5703 10.4354 20.1205 11.5623C19.6754 12.6845 19.0338 13.5415 18.1958 14.1333C17.3624 14.7252 16.361 15.0211 15.1915 15.0211ZM15.1915 12.7981C16.1006 12.7981 16.8179 12.3507 17.3435 11.4558C17.8738 10.5562 18.1389 9.23278 18.1389 7.48562C18.1389 6.33031 18.0182 5.35967 17.7767 4.57369C17.5352 3.7877 17.1943 3.19584 16.754 2.79812C16.3137 2.39566 15.7928 2.19442 15.1915 2.19442C14.2871 2.19442 13.5722 2.64423 13.0466 3.54386C12.521 4.43874 12.2559 5.75266 12.2512 7.48562C12.2464 8.64566 12.3624 9.62103 12.5992 10.4118C12.8406 11.2025 13.1816 11.7991 13.6219 12.2015C14.0622 12.5993 14.5854 12.7981 15.1915 12.7981Z" fill="white"/>
</svg>
