<svg width="20" height="15" viewBox="0 0 20 15" fill="none" xmlns="http://www.w3.org/2000/svg">
<path id="12" d="M6.12189 0.198686V14.7441H3.48695L3.48695 2.76261H3.40172L-0.000266328 4.9359V2.52113L3.61479 0.198686L6.12189 0.198686ZM9.81507 14.7441V12.8407L14.8648 7.89045C15.3477 7.40276 15.7502 6.96952 16.0722 6.59073C16.3941 6.21194 16.6356 5.84499 16.7966 5.48988C16.9576 5.13477 17.0381 4.75598 17.0381 4.35352C17.0381 3.89423 16.9339 3.50124 16.7256 3.17454C16.5173 2.8431 16.2308 2.58742 15.8662 2.40749C15.5016 2.22757 15.0873 2.13761 14.6233 2.13761C14.1451 2.13761 13.7261 2.23704 13.3662 2.4359C13.0064 2.63003 12.727 2.90702 12.5281 3.26687C12.334 3.62672 12.2369 4.05522 12.2369 4.55238H9.72985C9.72985 3.62908 9.94055 2.82653 10.3619 2.14471C10.7834 1.46289 11.3634 0.934954 12.102 0.560902C12.8454 0.186849 13.6977 -0.000178099 14.6588 -0.000178099C15.6342 -0.000178099 16.4912 0.182114 17.2298 0.546697C17.9685 0.91128 18.5414 1.41081 18.9486 2.04528C19.3605 2.67975 19.5665 3.40418 19.5665 4.21857C19.5665 4.76308 19.4623 5.29812 19.254 5.82369C19.0457 6.34925 18.6787 6.93164 18.1531 7.57085C17.6323 8.21005 16.9008 8.9842 15.9585 9.89329L13.4514 12.443V12.5424H19.7867V14.7441H9.81507Z" fill="white"/>
</svg>
