<svg width="21" height="15" viewBox="0 0 21 15" fill="none" xmlns="http://www.w3.org/2000/svg">
<path id="13" d="M6.12189 0.198686V14.7441H3.48695L3.48695 2.76261H3.40172L-0.000266328 4.9359V2.52113L3.61479 0.198686L6.12189 0.198686ZM15.0352 14.943C14.0125 14.943 13.1034 14.7678 12.308 14.4174C11.5173 14.0671 10.8923 13.5794 10.433 12.9544C9.97369 12.3294 9.72985 11.6073 9.70144 10.7882H12.3719C12.3956 11.1812 12.5258 11.5244 12.7625 11.818C12.9993 12.1068 13.3141 12.3317 13.7071 12.4927C14.1001 12.6537 14.5405 12.7342 15.0281 12.7342C15.549 12.7342 16.0106 12.6442 16.4131 12.4643C16.8155 12.2797 17.1304 12.024 17.3577 11.6973C17.585 11.3706 17.6962 10.9941 17.6915 10.568C17.6962 10.1277 17.5826 9.73941 17.3506 9.40323C17.1186 9.06706 16.7824 8.80427 16.3421 8.61488C15.9065 8.42549 15.3809 8.33079 14.7654 8.33079H13.4798V6.29954H14.7654C15.272 6.29954 15.7147 6.21194 16.0935 6.03675C16.477 5.86156 16.7777 5.61535 16.9955 5.29812C17.2133 4.97615 17.3198 4.60446 17.3151 4.18306C17.3198 3.77113 17.2275 3.41365 17.0381 3.11062C16.8534 2.80285 16.5906 2.56374 16.2497 2.39329C15.9136 2.22283 15.5182 2.13761 15.0637 2.13761C14.6186 2.13761 14.2066 2.2181 13.8279 2.37908C13.4491 2.54007 13.1437 2.76971 12.9117 3.068C12.6797 3.36156 12.5566 3.71194 12.5423 4.11914H10.0068C10.0258 3.30475 10.2602 2.58978 10.71 1.97425C11.1645 1.35399 11.7706 0.871034 12.5281 0.525391C13.2857 0.175011 14.1356 -0.000178099 15.0779 -0.000178099C16.0485 -0.000178099 16.8913 0.182114 17.6063 0.546697C18.326 0.906545 18.8823 1.39187 19.2753 2.00266C19.6683 2.61346 19.8648 3.28817 19.8648 4.02681C19.8695 4.84594 19.628 5.53249 19.1404 6.08647C18.6574 6.64045 18.0229 7.00266 17.2369 7.17312V7.28675C18.2597 7.4288 19.0433 7.80759 19.5878 8.42312C20.137 9.03391 20.4093 9.79386 20.4046 10.7029C20.4046 11.5173 20.1726 12.2465 19.7085 12.8904C19.2493 13.5297 18.6148 14.0315 17.8051 14.3961C17.0002 14.7607 16.0769 14.943 15.0352 14.943Z" fill="white"/>
</svg>
