<svg width="21" height="15" viewBox="0 0 21 15" fill="none" xmlns="http://www.w3.org/2000/svg">
<path id="15" d="M6.12189 -4.48227e-05V14.5454H3.48695L3.48695 2.56388H3.40172L-0.000266328 4.73717V2.3224L3.61479 -4.48227e-05L6.12189 -4.48227e-05ZM14.8719 14.7443C13.9249 14.7443 13.0774 14.5667 12.3293 14.2116C11.5812 13.8518 10.9869 13.3593 10.5466 12.7343C10.111 12.1093 9.879 11.3944 9.85059 10.5894H12.4074C12.4548 11.186 12.7128 11.6737 13.1816 12.0525C13.6503 12.4266 14.2137 12.6136 14.8719 12.6136C15.388 12.6136 15.8473 12.4952 16.2497 12.2585C16.6522 12.0217 16.9694 11.6927 17.2014 11.2713C17.4334 10.8499 17.5471 10.3693 17.5423 9.8295C17.5471 9.28026 17.4311 8.79257 17.1943 8.36643C16.9576 7.9403 16.6333 7.60649 16.2213 7.36501C15.8094 7.1188 15.3359 6.99569 14.8009 6.99569C14.3653 6.99096 13.9368 7.07145 13.5154 7.23717C13.094 7.40289 12.7602 7.62069 12.5139 7.89058L10.1347 7.49996L10.8946 -4.48227e-05L19.3321 -4.48227e-05V2.20166H13.075L12.656 6.05819H12.7412C13.0111 5.74096 13.3923 5.47817 13.8847 5.26984C14.3771 5.05677 14.9169 4.95024 15.504 4.95024C16.3847 4.95024 17.1707 5.15857 17.8619 5.57524C18.5532 5.98717 19.0977 6.55535 19.4955 7.27979C19.8932 8.00422 20.0921 8.83282 20.0921 9.76558C20.0921 10.7268 19.8695 11.5838 19.4244 12.3366C18.9841 13.0847 18.3709 13.6742 17.585 14.1051C16.8037 14.5312 15.8994 14.7443 14.8719 14.7443Z" fill="white"/>
</svg>
