<svg width="21" height="15" viewBox="0 0 21 15" fill="none" xmlns="http://www.w3.org/2000/svg">
<path id="16" d="M6.12189 0.198686V14.7441H3.48695V2.76261H3.40172L-0.000266328 4.9359V2.52113L3.61479 0.198686H6.12189ZM15.1418 14.943C14.4458 14.9383 13.7663 14.8175 13.1034 14.5808C12.4405 14.3393 11.844 13.9487 11.3137 13.4089C10.7834 12.8644 10.3619 12.1423 10.0494 11.2427C9.73695 10.3384 9.58307 9.21857 9.5878 7.88335C9.5878 6.63808 9.72038 5.52776 9.98553 4.55238C10.2507 3.577 10.6318 2.75314 11.129 2.08079C11.6262 1.4037 12.2251 0.887606 12.9259 0.532492C13.6314 0.177379 14.4197 -0.000178099 15.2909 -0.000178099C16.2048 -0.000178099 17.0144 0.179746 17.7199 0.539594C18.4301 0.899443 19.003 1.39187 19.4387 2.01687C19.8743 2.63713 20.1441 3.33789 20.2483 4.11914H17.656C17.5234 3.56043 17.2512 3.11535 16.8392 2.78391C16.432 2.44774 15.9159 2.27965 15.2909 2.27965C14.2824 2.27965 13.5059 2.71763 12.9614 3.59357C12.4216 4.46952 12.1494 5.67217 12.1446 7.20153H12.2441C12.4761 6.78486 12.7767 6.42738 13.146 6.12908C13.5154 5.83079 13.932 5.60115 14.396 5.44016C14.8648 5.27444 15.3596 5.19158 15.8804 5.19158C16.7327 5.19158 17.4974 5.39518 18.1744 5.80238C18.8563 6.20958 19.396 6.77066 19.7938 7.48562C20.1915 8.19585 20.388 9.01024 20.3833 9.9288C20.388 10.8852 20.1702 11.7446 19.7298 12.5069C19.2895 13.2645 18.6763 13.8611 17.8904 14.2967C17.1044 14.7323 16.1882 14.9477 15.1418 14.943ZM15.1276 12.8123C15.6437 12.8123 16.1053 12.6868 16.5125 12.4359C16.9197 12.185 17.2417 11.8464 17.4784 11.4203C17.7152 10.9941 17.8312 10.5159 17.8264 9.98562C17.8312 9.46478 17.7175 8.99367 17.4855 8.57227C17.2583 8.15086 16.9434 7.81706 16.5409 7.57085C16.1385 7.32463 15.6792 7.20153 15.1631 7.20153C14.7796 7.20153 14.4221 7.27492 14.0906 7.4217C13.7592 7.56848 13.4704 7.77208 13.2242 8.03249C12.978 8.28817 12.7838 8.58647 12.6418 8.92738C12.5045 9.26355 12.4334 9.6234 12.4287 10.0069C12.4334 10.5136 12.5518 10.9799 12.7838 11.4061C13.0158 11.8322 13.3354 12.1731 13.7426 12.4288C14.1498 12.6845 14.6115 12.8123 15.1276 12.8123Z" fill="white"/>
</svg>
