<svg width="21" height="15" viewBox="0 0 21 15" fill="none" xmlns="http://www.w3.org/2000/svg">
<path id="18" d="M6.12189 0.198686V14.7441H3.48695V2.76261H3.40172L-0.000266328 4.9359V2.52113L3.61479 0.198686H6.12189ZM14.9855 14.943C13.9297 14.943 12.9922 14.7654 12.173 14.4103C11.3586 14.0552 10.7194 13.5699 10.2554 12.9544C9.79614 12.3341 9.56886 11.631 9.5736 10.845C9.56886 10.2342 9.70144 9.67312 9.97132 9.16175C10.2412 8.65039 10.6058 8.22425 11.0651 7.88335C11.5291 7.5377 12.0452 7.31753 12.6134 7.22283V7.1234C11.8653 6.95768 11.2592 6.57653 10.7952 5.97994C10.3359 5.37861 10.1086 4.68495 10.1134 3.89897C10.1086 3.15086 10.317 2.48325 10.7384 1.89613C11.1598 1.30901 11.7374 0.84736 12.4713 0.511186C13.2052 0.170276 14.0433 -0.000178099 14.9855 -0.000178099C15.9183 -0.000178099 16.7493 0.170276 17.4784 0.511186C18.2123 0.84736 18.79 1.30901 19.2114 1.89613C19.6375 2.48325 19.8506 3.15086 19.8506 3.89897C19.8506 4.68495 19.6162 5.37861 19.1475 5.97994C18.6834 6.57653 18.0845 6.95768 17.3506 7.1234V7.22283C17.9188 7.31753 18.4301 7.5377 18.8847 7.88335C19.344 8.22425 19.7085 8.65039 19.9784 9.16175C20.253 9.67312 20.3904 10.2342 20.3904 10.845C20.3904 11.631 20.1584 12.3341 19.6943 12.9544C19.2303 13.5699 18.5911 14.0552 17.7767 14.4103C16.9671 14.7654 16.0367 14.943 14.9855 14.943ZM14.9855 12.9118C15.53 12.9118 16.0035 12.8194 16.406 12.6348C16.8084 12.4454 17.1209 12.1802 17.3435 11.8393C17.566 11.4984 17.6797 11.1054 17.6844 10.6603C17.6797 10.1963 17.5589 9.78675 17.3222 9.43164C17.0902 9.07179 16.7706 8.79007 16.3634 8.58647C15.9609 8.38287 15.5016 8.28107 14.9855 8.28107C14.4647 8.28107 14.0007 8.38287 13.5935 8.58647C13.1863 8.79007 12.8643 9.07179 12.6276 9.43164C12.3956 9.78675 12.2819 10.1963 12.2867 10.6603C12.2819 11.1054 12.3908 11.4984 12.6134 11.8393C12.8359 12.1755 13.1484 12.4383 13.5509 12.6277C13.9581 12.8171 14.4363 12.9118 14.9855 12.9118ZM14.9855 6.28533C15.4306 6.28533 15.8236 6.19537 16.1645 6.01545C16.5102 5.83552 16.7824 5.58458 16.9813 5.26261C17.1801 4.94064 17.2819 4.56895 17.2867 4.14755C17.2819 3.73088 17.1825 3.3663 16.9884 3.0538C16.7942 2.73656 16.5244 2.49272 16.1787 2.32227C15.8331 2.14708 15.4353 2.05948 14.9855 2.05948C14.5262 2.05948 14.1214 2.14708 13.771 2.32227C13.4254 2.49272 13.1555 2.73656 12.9614 3.0538C12.772 3.3663 12.6797 3.73088 12.6844 4.14755C12.6797 4.56895 12.7744 4.94064 12.9685 5.26261C13.1673 5.57984 13.4396 5.83079 13.7852 6.01545C14.1356 6.19537 14.5357 6.28533 14.9855 6.28533Z" fill="white"/>
</svg>
