<svg width="21" height="15" viewBox="0 0 21 15" fill="none" xmlns="http://www.w3.org/2000/svg">
<path id="19" d="M6.12189 0.212846V14.7583H3.48695V2.77677H3.40172L-0.000266328 4.95006V2.53529L3.61479 0.212846H6.12189ZM14.8648 0.0139821C15.5608 0.0187171 16.2379 0.141823 16.896 0.383301C17.5589 0.620043 18.1555 1.0083 18.6858 1.54807C19.2161 2.08311 19.6375 2.80044 19.95 3.70006C20.2625 4.59968 20.4188 5.71237 20.4188 7.03813C20.4235 8.28813 20.2909 9.40555 20.021 10.3904C19.7559 11.3705 19.3747 12.1991 18.8776 12.8762C18.3804 13.5533 17.7815 14.0694 17.0807 14.4245C16.3799 14.7796 15.5916 14.9572 14.7156 14.9572C13.7971 14.9572 12.9827 14.7772 12.2725 14.4174C11.567 14.0575 10.9964 13.5651 10.5608 12.9401C10.1252 12.3151 9.85769 11.6002 9.75826 10.7952H12.3506C12.4832 11.3729 12.753 11.8322 13.1602 12.1731C13.5722 12.5092 14.0906 12.6773 14.7156 12.6773C15.7242 12.6773 16.5007 12.2394 17.0452 11.3634C17.5897 10.4875 17.8619 9.27061 17.8619 7.71285H17.7625C17.5305 8.12951 17.2298 8.48936 16.8605 8.79239C16.4912 9.09069 16.0722 9.32033 15.6034 9.48131C15.1394 9.6423 14.647 9.72279 14.1262 9.72279C13.2739 9.72279 12.5068 9.51919 11.825 9.11199C11.1479 8.7048 10.6105 8.14608 10.2128 7.43586C9.81981 6.72563 9.62095 5.9136 9.61621 4.99978C9.61621 4.05281 9.83401 3.2029 10.2696 2.45006C10.71 1.69249 11.3231 1.0959 12.1091 0.66029C12.8951 0.219948 13.8137 0.00451207 14.8648 0.0139821ZM14.8719 2.14466C14.3605 2.14466 13.8989 2.27014 13.4869 2.52108C13.0798 2.7673 12.7578 3.10347 12.521 3.52961C12.289 3.95101 12.173 4.42213 12.173 4.94296C12.1778 5.45906 12.2938 5.92781 12.521 6.34921C12.753 6.77061 13.0679 7.10442 13.4656 7.35063C13.8681 7.59684 14.3274 7.71995 14.8435 7.71995C15.227 7.71995 15.5845 7.64656 15.9159 7.49978C16.2474 7.353 16.5362 7.1494 16.7824 6.88898C17.0334 6.62383 17.2275 6.32317 17.3648 5.98699C17.5068 5.65082 17.5755 5.29571 17.5708 4.92165C17.5708 4.42449 17.4524 3.96521 17.2156 3.54381C16.9836 3.12241 16.664 2.78387 16.2568 2.52819C15.8544 2.27251 15.3927 2.14466 14.8719 2.14466Z" fill="white"/>
</svg>
