<svg width="24" height="16" viewBox="0 0 24 16" fill="none" xmlns="http://www.w3.org/2000/svg">
<path id="20" d="M0.0855825 14.7441V12.8407L5.1353 7.89045C5.61825 7.40276 6.02072 6.96952 6.34268 6.59073C6.66465 6.21194 6.90613 5.84499 7.06712 5.48988C7.2281 5.13477 7.30859 4.75598 7.30859 4.35352C7.30859 3.89423 7.20443 3.50124 6.99609 3.17454C6.78776 2.8431 6.5013 2.58742 6.13672 2.40749C5.77214 2.22757 5.35784 2.13761 4.89382 2.13761C4.4156 2.13761 3.99657 2.23704 3.63672 2.4359C3.27687 2.63003 2.99751 2.90702 2.79865 3.26687C2.60452 3.62672 2.50746 4.05522 2.50746 4.55238H0.000355154C0.000355154 3.62908 0.211056 2.82653 0.632457 2.14471C1.05386 1.46289 1.63388 0.934954 2.37251 0.560902C3.11589 0.186849 3.96816 -0.000178099 4.92933 -0.000178099C5.90471 -0.000178099 6.76172 0.182114 7.50036 0.546697C8.23899 0.91128 8.81191 1.41081 9.21911 2.04528C9.63104 2.67975 9.837 3.40418 9.837 4.21857C9.837 4.76308 9.73284 5.29812 9.5245 5.82369C9.31617 6.34925 8.94922 6.93164 8.42365 7.57085C7.90282 8.21005 7.17128 8.9842 6.22905 9.89329L3.72195 12.443V12.5424H10.0572V14.7441H0.0855825ZM17.8839 15.0211C16.7144 15.0211 15.7106 14.7252 14.8725 14.1333C14.0392 13.5368 13.3976 12.6774 12.9478 11.5552C12.5027 10.4283 12.2802 9.07179 12.2802 7.48562C12.2849 5.89944 12.5098 4.55001 12.9549 3.43732C13.4047 2.3199 14.0463 1.46763 14.8796 0.880504C15.7177 0.293383 16.7191 -0.000178099 17.8839 -0.000178099C19.0487 -0.000178099 20.0501 0.293383 20.8881 0.880504C21.7262 1.46763 22.3678 2.3199 22.8129 3.43732C23.2627 4.55475 23.4876 5.90418 23.4876 7.48562C23.4876 9.07653 23.2627 10.4354 22.8129 11.5623C22.3678 12.6845 21.7262 13.5415 20.8881 14.1333C20.0548 14.7252 19.0534 15.0211 17.8839 15.0211ZM17.8839 12.7981C18.793 12.7981 19.5103 12.3507 20.0359 11.4558C20.5662 10.5562 20.8313 9.23278 20.8313 7.48562C20.8313 6.33031 20.7106 5.35967 20.4691 4.57369C20.2276 3.7877 19.8867 3.19584 19.4464 2.79812C19.006 2.39566 18.4852 2.19442 17.8839 2.19442C16.9795 2.19442 16.2646 2.64423 15.739 3.54386C15.2134 4.43874 14.9483 5.75266 14.9435 7.48562C14.9388 8.64566 15.0548 9.62103 15.2915 10.4118C15.533 11.2025 15.8739 11.7991 16.3143 12.2015C16.7546 12.5993 17.2778 12.7981 17.8839 12.7981Z" fill="white"/>
</svg>
