<svg width="19" height="15" viewBox="0 0 19 15" fill="none" xmlns="http://www.w3.org/2000/svg">
<path id="21" d="M0.0855825 14.7441V12.8407L5.1353 7.89045C5.61825 7.40276 6.02072 6.96952 6.34268 6.59073C6.66465 6.21194 6.90613 5.84499 7.06712 5.48988C7.2281 5.13477 7.30859 4.75598 7.30859 4.35352C7.30859 3.89423 7.20443 3.50124 6.99609 3.17454C6.78776 2.8431 6.5013 2.58742 6.13672 2.40749C5.77214 2.22757 5.35784 2.13761 4.89382 2.13761C4.4156 2.13761 3.99657 2.23704 3.63672 2.4359C3.27687 2.63003 2.99751 2.90702 2.79865 3.26687C2.60452 3.62672 2.50746 4.05522 2.50746 4.55238H0.000355154C0.000355154 3.62908 0.211056 2.82653 0.632457 2.14471C1.05386 1.46289 1.63388 0.934954 2.37251 0.560902C3.11589 0.186849 3.96816 -0.000178099 4.92933 -0.000178099C5.90471 -0.000178099 6.76172 0.182114 7.50036 0.546697C8.23899 0.91128 8.81191 1.41081 9.21911 2.04528C9.63104 2.67975 9.837 3.40418 9.837 4.21857C9.837 4.76308 9.73284 5.29812 9.5245 5.82369C9.31617 6.34925 8.94922 6.93164 8.42365 7.57085C7.90282 8.21005 7.17128 8.9842 6.22905 9.89329L3.72195 12.443V12.5424H10.0572V14.7441H0.0855825ZM18.4237 0.198686V14.7441H15.7887V2.76261H15.7035L12.3015 4.9359V2.52113L15.9165 0.198686H18.4237Z" fill="white"/>
</svg>
