<svg width="23" height="15" viewBox="0 0 23 15" fill="none" xmlns="http://www.w3.org/2000/svg">
<path id="22" d="M0.0855825 14.7441V12.8407L5.1353 7.89045C5.61825 7.40276 6.02072 6.96952 6.34268 6.59073C6.66465 6.21194 6.90613 5.84499 7.06712 5.48988C7.2281 5.13477 7.30859 4.75598 7.30859 4.35352C7.30859 3.89423 7.20443 3.50124 6.99609 3.17454C6.78776 2.8431 6.5013 2.58742 6.13672 2.40749C5.77214 2.22757 5.35784 2.13761 4.89382 2.13761C4.4156 2.13761 3.99657 2.23704 3.63672 2.4359C3.27687 2.63003 2.99751 2.90702 2.79865 3.26687C2.60452 3.62672 2.50746 4.05522 2.50746 4.55238H0.000355154C0.000355154 3.62908 0.211056 2.82653 0.632457 2.14471C1.05386 1.46289 1.63388 0.934954 2.37251 0.560902C3.11589 0.186849 3.96816 -0.000178099 4.92933 -0.000178099C5.90471 -0.000178099 6.76172 0.182114 7.50036 0.546697C8.23899 0.91128 8.81191 1.41081 9.21911 2.04528C9.63104 2.67975 9.837 3.40418 9.837 4.21857C9.837 4.76308 9.73284 5.29812 9.5245 5.82369C9.31617 6.34925 8.94922 6.93164 8.42365 7.57085C7.90282 8.21005 7.17128 8.9842 6.22905 9.89329L3.72195 12.443V12.5424H10.0572V14.7441H0.0855825ZM12.5075 14.7441V12.8407L17.5572 7.89045C18.0401 7.40276 18.4426 6.96952 18.7646 6.59073C19.0865 6.21194 19.328 5.84499 19.489 5.48988C19.65 5.13477 19.7305 4.75598 19.7305 4.35352C19.7305 3.89423 19.6263 3.50124 19.418 3.17454C19.2096 2.8431 18.9232 2.58742 18.5586 2.40749C18.194 2.22757 17.7797 2.13761 17.3157 2.13761C16.8375 2.13761 16.4184 2.23704 16.0586 2.4359C15.6987 2.63003 15.4194 2.90702 15.2205 3.26687C15.0264 3.62672 14.9293 4.05522 14.9293 4.55238H12.4222C12.4222 3.62908 12.6329 2.82653 13.0543 2.14471C13.4757 1.46289 14.0558 0.934954 14.7944 0.560902C15.5378 0.186849 16.39 -0.000178099 17.3512 -0.000178099C18.3266 -0.000178099 19.1836 0.182114 19.9222 0.546697C20.6609 0.91128 21.2338 1.41081 21.641 2.04528C22.0529 2.67975 22.2589 3.40418 22.2589 4.21857C22.2589 4.76308 22.1547 5.29812 21.9464 5.82369C21.738 6.34925 21.3711 6.93164 20.8455 7.57085C20.3247 8.21005 19.5932 8.9842 18.6509 9.89329L16.1438 12.443V12.5424H22.479V14.7441H12.5075Z" fill="white"/>
</svg>
