<svg width="24" height="15" viewBox="0 0 24 15" fill="none" xmlns="http://www.w3.org/2000/svg">
<path id="23" d="M0.0855825 14.7441V12.8407L5.1353 7.89045C5.61825 7.40276 6.02072 6.96952 6.34268 6.59073C6.66465 6.21194 6.90613 5.84499 7.06712 5.48988C7.2281 5.13477 7.30859 4.75598 7.30859 4.35352C7.30859 3.89423 7.20443 3.50124 6.99609 3.17454C6.78776 2.8431 6.5013 2.58742 6.13672 2.40749C5.77214 2.22757 5.35784 2.13761 4.89382 2.13761C4.4156 2.13761 3.99657 2.23704 3.63672 2.4359C3.27687 2.63003 2.99751 2.90702 2.79865 3.26687C2.60452 3.62672 2.50746 4.05522 2.50746 4.55238H0.000355154C0.000355154 3.62908 0.211056 2.82653 0.632457 2.14471C1.05386 1.46289 1.63388 0.934954 2.37251 0.560902C3.11589 0.186849 3.96816 -0.000178099 4.92933 -0.000178099C5.90471 -0.000178099 6.76172 0.182114 7.50036 0.546697C8.23899 0.91128 8.81191 1.41081 9.21911 2.04528C9.63104 2.67975 9.837 3.40418 9.837 4.21857C9.837 4.76308 9.73284 5.29812 9.5245 5.82369C9.31617 6.34925 8.94922 6.93164 8.42365 7.57085C7.90282 8.21005 7.17128 8.9842 6.22905 9.89329L3.72195 12.443V12.5424H10.0572V14.7441H0.0855825ZM17.7276 14.943C16.7049 14.943 15.7958 14.7678 15.0004 14.4174C14.2096 14.0671 13.5846 13.5794 13.1254 12.9544C12.6661 12.3294 12.4222 11.6073 12.3938 10.7882H15.0643C15.0879 11.1812 15.2182 11.5244 15.4549 11.818C15.6916 12.1068 16.0065 12.3317 16.3995 12.4927C16.7925 12.6537 17.2328 12.7342 17.7205 12.7342C18.2414 12.7342 18.703 12.6442 19.1055 12.4643C19.5079 12.2797 19.8228 12.024 20.0501 11.6973C20.2773 11.3706 20.3886 10.9941 20.3839 10.568C20.3886 10.1277 20.275 9.73941 20.043 9.40323C19.811 9.06706 19.4748 8.80427 19.0344 8.61488C18.5988 8.42549 18.0733 8.33079 17.4577 8.33079H16.1722V6.29954H17.4577C17.9644 6.29954 18.4071 6.21194 18.7859 6.03675C19.1694 5.86156 19.4701 5.61535 19.6879 5.29812C19.9057 4.97615 20.0122 4.60446 20.0075 4.18306C20.0122 3.77113 19.9199 3.41365 19.7305 3.11062C19.5458 2.80285 19.283 2.56374 18.9421 2.39329C18.6059 2.22283 18.2106 2.13761 17.756 2.13761C17.311 2.13761 16.899 2.2181 16.5202 2.37908C16.1415 2.54007 15.8361 2.76971 15.604 3.068C15.372 3.36156 15.2489 3.71194 15.2347 4.11914H12.6992C12.7182 3.30475 12.9525 2.58978 13.4023 1.97425C13.8569 1.35399 14.4629 0.871034 15.2205 0.525391C15.9781 0.175011 16.828 -0.000178099 17.7702 -0.000178099C18.7409 -0.000178099 19.5837 0.182114 20.2987 0.546697C21.0183 0.906545 21.5747 1.39187 21.9677 2.00266C22.3607 2.61346 22.5572 3.28817 22.5572 4.02681C22.5619 4.84594 22.3204 5.53249 21.8327 6.08647C21.3498 6.64045 20.7153 7.00266 19.9293 7.17312V7.28675C20.9521 7.4288 21.7357 7.80759 22.2802 8.42312C22.8294 9.03391 23.1017 9.79386 23.0969 10.7029C23.0969 11.5173 22.8649 12.2465 22.4009 12.8904C21.9416 13.5297 21.3072 14.0315 20.4975 14.3961C19.6926 14.7607 18.7693 14.943 17.7276 14.943Z" fill="white"/>
</svg>
