<svg width="23" height="15" viewBox="0 0 23 15" fill="none" xmlns="http://www.w3.org/2000/svg">
<path id="25" d="M0.0855825 14.7441V12.8407L5.1353 7.89045C5.61825 7.40276 6.02072 6.96952 6.34268 6.59073C6.66465 6.21194 6.90613 5.84499 7.06712 5.48988C7.2281 5.13477 7.30859 4.75598 7.30859 4.35352C7.30859 3.89423 7.20443 3.50124 6.99609 3.17454C6.78776 2.8431 6.5013 2.58742 6.13672 2.40749C5.77214 2.22757 5.35784 2.13761 4.89382 2.13761C4.4156 2.13761 3.99657 2.23704 3.63672 2.4359C3.27687 2.63003 2.99751 2.90702 2.79865 3.26687C2.60452 3.62672 2.50746 4.05522 2.50746 4.55238H0.000355154C0.000355154 3.62908 0.211056 2.82653 0.632457 2.14471C1.05386 1.46289 1.63388 0.934954 2.37251 0.560902C3.11589 0.186849 3.96816 -0.000178099 4.92933 -0.000178099C5.90471 -0.000178099 6.76172 0.182114 7.50036 0.546697C8.23899 0.91128 8.81191 1.41081 9.21911 2.04528C9.63104 2.67975 9.837 3.40418 9.837 4.21857C9.837 4.76308 9.73284 5.29812 9.5245 5.82369C9.31617 6.34925 8.94922 6.93164 8.42365 7.57085C7.90282 8.21005 7.17128 8.9842 6.22905 9.89329L3.72195 12.443V12.5424H10.0572V14.7441H0.0855825ZM17.5643 14.943C16.6173 14.943 15.7698 14.7654 15.0217 14.4103C14.2736 14.0505 13.6793 13.5581 13.239 12.9331C12.8034 12.3081 12.5714 11.5931 12.543 10.7882H15.0998C15.1471 11.3848 15.4052 11.8725 15.8739 12.2512C16.3427 12.6253 16.9061 12.8123 17.5643 12.8123C18.0804 12.8123 18.5397 12.694 18.9421 12.4572C19.3446 12.2205 19.6618 11.8914 19.8938 11.47C20.1258 11.0486 20.2395 10.568 20.2347 10.0282C20.2395 9.47899 20.1235 8.9913 19.8867 8.56516C19.65 8.13903 19.3256 7.80522 18.9137 7.56374C18.5018 7.31753 18.0283 7.19442 17.4933 7.19442C17.0576 7.18969 16.6291 7.27018 16.2077 7.4359C15.7863 7.60162 15.4525 7.81942 15.2063 8.08931L12.8271 7.69869L13.587 0.198686H22.0245V2.40039H15.7674L15.3484 6.25692H15.4336C15.7035 5.93969 16.0846 5.67691 16.5771 5.46857C17.0695 5.2555 17.6093 5.14897 18.1964 5.14897C19.0771 5.14897 19.863 5.3573 20.5543 5.77397C21.2456 6.1859 21.7901 6.75408 22.1879 7.47852C22.5856 8.20295 22.7844 9.03155 22.7844 9.96431C22.7844 10.9255 22.5619 11.7825 22.1168 12.5353C21.6765 13.2834 21.0633 13.8729 20.2773 14.3038C19.4961 14.7299 18.5917 14.943 17.5643 14.943Z" fill="white"/>
</svg>
