<svg width="24" height="15" viewBox="0 0 24 15" fill="none" xmlns="http://www.w3.org/2000/svg">
<path id="26" d="M0.0855825 14.7441V12.8407L5.1353 7.89045C5.61825 7.40276 6.02072 6.96952 6.34268 6.59073C6.66465 6.21194 6.90613 5.84499 7.06712 5.48988C7.2281 5.13477 7.30859 4.75598 7.30859 4.35352C7.30859 3.89423 7.20443 3.50124 6.99609 3.17454C6.78776 2.8431 6.5013 2.58742 6.13672 2.40749C5.77214 2.22757 5.35784 2.13761 4.89382 2.13761C4.4156 2.13761 3.99657 2.23704 3.63672 2.4359C3.27687 2.63003 2.99751 2.90702 2.79865 3.26687C2.60452 3.62672 2.50746 4.05522 2.50746 4.55238H0.000355154C0.000355154 3.62908 0.211056 2.82653 0.632457 2.14471C1.05386 1.46289 1.63388 0.934954 2.37251 0.560902C3.11589 0.186849 3.96816 -0.000178099 4.92933 -0.000178099C5.90471 -0.000178099 6.76172 0.182114 7.50036 0.546697C8.23899 0.91128 8.81191 1.41081 9.21911 2.04528C9.63104 2.67975 9.837 3.40418 9.837 4.21857C9.837 4.76308 9.73284 5.29812 9.5245 5.82369C9.31617 6.34925 8.94922 6.93164 8.42365 7.57085C7.90282 8.21005 7.17128 8.9842 6.22905 9.89329L3.72195 12.443V12.5424H10.0572V14.7441H0.0855825ZM17.8342 14.943C17.1381 14.9383 16.4587 14.8175 15.7958 14.5808C15.1329 14.3393 14.5363 13.9487 14.006 13.4089C13.4757 12.8644 13.0543 12.1423 12.7418 11.2427C12.4293 10.3384 12.2754 9.21857 12.2802 7.88335C12.2802 6.63808 12.4128 5.52776 12.6779 4.55238C12.9431 3.577 13.3242 2.75314 13.8214 2.08079C14.3185 1.4037 14.9175 0.887606 15.6183 0.532492C16.3237 0.177379 17.1121 -0.000178099 17.9833 -0.000178099C18.8971 -0.000178099 19.7068 0.179746 20.4123 0.539594C21.1225 0.899443 21.6954 1.39187 22.131 2.01687C22.5666 2.63713 22.8365 3.33789 22.9407 4.11914H20.3484C20.2158 3.56043 19.9435 3.11535 19.5316 2.78391C19.1244 2.44774 18.6083 2.27965 17.9833 2.27965C16.9748 2.27965 16.1983 2.71763 15.6538 3.59357C15.114 4.46952 14.8417 5.67217 14.837 7.20153H14.9364C15.1684 6.78486 15.4691 6.42738 15.8384 6.12908C16.2077 5.83079 16.6244 5.60115 17.0884 5.44016C17.5572 5.27444 18.052 5.19158 18.5728 5.19158C19.4251 5.19158 20.1897 5.39518 20.8668 5.80238C21.5487 6.20958 22.0884 6.77066 22.4862 7.48562C22.8839 8.19585 23.0804 9.01024 23.0756 9.9288C23.0804 10.8852 22.8626 11.7446 22.4222 12.5069C21.9819 13.2645 21.3687 13.8611 20.5827 14.2967C19.7968 14.7323 18.8806 14.9477 17.8342 14.943ZM17.82 12.8123C18.3361 12.8123 18.7977 12.6868 19.2049 12.4359C19.6121 12.185 19.9341 11.8464 20.1708 11.4203C20.4076 10.9941 20.5236 10.5159 20.5188 9.98562C20.5236 9.46478 20.4099 8.99367 20.1779 8.57227C19.9506 8.15086 19.6358 7.81706 19.2333 7.57085C18.8308 7.32463 18.3716 7.20153 17.8555 7.20153C17.4719 7.20153 17.1145 7.27492 16.783 7.4217C16.4516 7.56848 16.1628 7.77208 15.9165 8.03249C15.6703 8.28817 15.4762 8.58647 15.3342 8.92738C15.1969 9.26355 15.1258 9.6234 15.1211 10.0069C15.1258 10.5136 15.2442 10.9799 15.4762 11.4061C15.7082 11.8322 16.0278 12.1731 16.435 12.4288C16.8422 12.6845 17.3039 12.8123 17.82 12.8123Z" fill="white"/>
</svg>
