<svg width="24" height="15" viewBox="0 0 24 15" fill="none" xmlns="http://www.w3.org/2000/svg">
<path id="28" d="M0.0855825 14.7441V12.8407L5.1353 7.89045C5.61825 7.40276 6.02072 6.96952 6.34268 6.59073C6.66465 6.21194 6.90613 5.84499 7.06712 5.48988C7.2281 5.13477 7.30859 4.75598 7.30859 4.35352C7.30859 3.89423 7.20443 3.50124 6.99609 3.17454C6.78776 2.8431 6.5013 2.58742 6.13672 2.40749C5.77214 2.22757 5.35784 2.13761 4.89382 2.13761C4.4156 2.13761 3.99657 2.23704 3.63672 2.4359C3.27687 2.63003 2.99751 2.90702 2.79865 3.26687C2.60452 3.62672 2.50746 4.05522 2.50746 4.55238H0.000355154C0.000355154 3.62908 0.211056 2.82653 0.632457 2.14471C1.05386 1.46289 1.63388 0.934954 2.37251 0.560902C3.11589 0.186849 3.96816 -0.000178099 4.92933 -0.000178099C5.90471 -0.000178099 6.76172 0.182114 7.50036 0.546697C8.23899 0.91128 8.81191 1.41081 9.21911 2.04528C9.63104 2.67975 9.837 3.40418 9.837 4.21857C9.837 4.76308 9.73284 5.29812 9.5245 5.82369C9.31617 6.34925 8.94922 6.93164 8.42365 7.57085C7.90282 8.21005 7.17128 8.9842 6.22905 9.89329L3.72195 12.443V12.5424H10.0572V14.7441H0.0855825ZM17.6779 14.943C16.622 14.943 15.6845 14.7654 14.8654 14.4103C14.051 14.0552 13.4118 13.5699 12.9478 12.9544C12.4885 12.3341 12.2612 11.631 12.266 10.845C12.2612 10.2342 12.3938 9.67312 12.6637 9.16175C12.9336 8.65039 13.2982 8.22425 13.7575 7.88335C14.2215 7.5377 14.7376 7.31753 15.3058 7.22283V7.1234C14.5576 6.95768 13.9516 6.57653 13.4876 5.97994C13.0283 5.37861 12.801 4.68495 12.8058 3.89897C12.801 3.15086 13.0094 2.48325 13.4308 1.89613C13.8522 1.30901 14.4298 0.84736 15.1637 0.511186C15.8976 0.170276 16.7357 -0.000178099 17.6779 -0.000178099C18.6107 -0.000178099 19.4416 0.170276 20.1708 0.511186C20.9047 0.84736 21.4824 1.30901 21.9038 1.89613C22.3299 2.48325 22.543 3.15086 22.543 3.89897C22.543 4.68495 22.3086 5.37861 21.8398 5.97994C21.3758 6.57653 20.7769 6.95768 20.043 7.1234V7.22283C20.6112 7.31753 21.1225 7.5377 21.5771 7.88335C22.0363 8.22425 22.4009 8.65039 22.6708 9.16175C22.9454 9.67312 23.0827 10.2342 23.0827 10.845C23.0827 11.631 22.8507 12.3341 22.3867 12.9544C21.9227 13.5699 21.2835 14.0552 20.4691 14.4103C19.6594 14.7654 18.729 14.943 17.6779 14.943ZM17.6779 12.9118C18.2224 12.9118 18.6959 12.8194 19.0984 12.6348C19.5008 12.4454 19.8133 12.1802 20.0359 11.8393C20.2584 11.4984 20.372 11.1054 20.3768 10.6603C20.372 10.1963 20.2513 9.78675 20.0146 9.43164C19.7826 9.07179 19.463 8.79007 19.0558 8.58647C18.6533 8.38287 18.194 8.28107 17.6779 8.28107C17.1571 8.28107 16.6931 8.38287 16.2859 8.58647C15.8787 8.79007 15.5567 9.07179 15.32 9.43164C15.0879 9.78675 14.9743 10.1963 14.979 10.6603C14.9743 11.1054 15.0832 11.4984 15.3058 11.8393C15.5283 12.1755 15.8408 12.4383 16.2433 12.6277C16.6505 12.8171 17.1287 12.9118 17.6779 12.9118ZM17.6779 6.28533C18.123 6.28533 18.516 6.19537 18.8569 6.01545C19.2025 5.83552 19.4748 5.58458 19.6737 5.26261C19.8725 4.94064 19.9743 4.56895 19.979 4.14755C19.9743 3.73088 19.8749 3.3663 19.6808 3.0538C19.4866 2.73656 19.2167 2.49272 18.8711 2.32227C18.5254 2.14708 18.1277 2.05948 17.6779 2.05948C17.2186 2.05948 16.8138 2.14708 16.4634 2.32227C16.1178 2.49272 15.8479 2.73656 15.6538 3.0538C15.4644 3.3663 15.372 3.73088 15.3768 4.14755C15.372 4.56895 15.4667 4.94064 15.6609 5.26261C15.8597 5.57984 16.132 5.83079 16.4776 6.01545C16.828 6.19537 17.2281 6.28533 17.6779 6.28533Z" fill="white"/>
</svg>
