<svg width="24" height="15" viewBox="0 0 24 15" fill="none" xmlns="http://www.w3.org/2000/svg">
<path id="29" d="M0.0855825 14.7583V12.8549L5.1353 7.90461C5.61825 7.41692 6.02072 6.98368 6.34268 6.60489C6.66465 6.2261 6.90613 5.85915 7.06712 5.50404C7.2281 5.14893 7.30859 4.77014 7.30859 4.36768C7.30859 3.90839 7.20443 3.5154 6.99609 3.1887C6.78776 2.85726 6.5013 2.60158 6.13672 2.42165C5.77214 2.24173 5.35784 2.15177 4.89382 2.15177C4.4156 2.15177 3.99657 2.2512 3.63672 2.45006C3.27687 2.64419 2.99751 2.92118 2.79865 3.28103C2.60452 3.64088 2.50746 4.06938 2.50746 4.56654H0.000355154C0.000355154 3.64324 0.211056 2.84069 0.632457 2.15887C1.05386 1.47705 1.63388 0.949115 2.37251 0.575062C3.11589 0.201009 3.96816 0.0139821 4.92933 0.0139821C5.90471 0.0139821 6.76172 0.196274 7.50036 0.560857C8.23899 0.92544 8.81191 1.42497 9.21911 2.05944C9.63104 2.69391 9.837 3.41834 9.837 4.23273C9.837 4.77724 9.73284 5.31228 9.5245 5.83785C9.31617 6.36341 8.94922 6.9458 8.42365 7.58501C7.90282 8.22421 7.17128 8.99836 6.22905 9.90745L3.72195 12.4572V12.5566H10.0572V14.7583H0.0855825ZM17.5572 0.0139821C18.2532 0.0187171 18.9303 0.141823 19.5884 0.383301C20.2513 0.620043 20.8479 1.0083 21.3782 1.54807C21.9085 2.08311 22.3299 2.80044 22.6424 3.70006C22.9549 4.59968 23.1112 5.71237 23.1112 7.03813C23.1159 8.28813 22.9833 9.40555 22.7134 10.3904C22.4483 11.3705 22.0671 12.1991 21.57 12.8762C21.0728 13.5533 20.4738 14.0694 19.7731 14.4245C19.0723 14.7796 18.284 14.9572 17.408 14.9572C16.4895 14.9572 15.6751 14.7772 14.9648 14.4174C14.2594 14.0575 13.6888 13.5651 13.2532 12.9401C12.8176 12.3151 12.5501 11.6002 12.4506 10.7952H15.043C15.1755 11.3729 15.4454 11.8322 15.8526 12.1731C16.2646 12.5092 16.783 12.6773 17.408 12.6773C18.4165 12.6773 19.1931 12.2394 19.7376 11.3634C20.2821 10.4875 20.5543 9.27061 20.5543 7.71285H20.4549C20.2229 8.12951 19.9222 8.48936 19.5529 8.79239C19.1836 9.09069 18.7646 9.32033 18.2958 9.48131C17.8318 9.6423 17.3394 9.72279 16.8185 9.72279C15.9663 9.72279 15.1992 9.51919 14.5174 9.11199C13.8403 8.7048 13.3029 8.14608 12.9052 7.43586C12.5122 6.72563 12.3133 5.9136 12.3086 4.99978C12.3086 4.05281 12.5264 3.2029 12.962 2.45006C13.4023 1.69249 14.0155 1.0959 14.8015 0.66029C15.5875 0.219948 16.506 0.00451207 17.5572 0.0139821ZM17.5643 2.14466C17.0529 2.14466 16.5913 2.27014 16.1793 2.52108C15.7721 2.7673 15.4502 3.10347 15.2134 3.52961C14.9814 3.95101 14.8654 4.42213 14.8654 4.94296C14.8701 5.45906 14.9862 5.92781 15.2134 6.34921C15.4454 6.77061 15.7603 7.10442 16.158 7.35063C16.5605 7.59684 17.0198 7.71995 17.5359 7.71995C17.9194 7.71995 18.2769 7.64656 18.6083 7.49978C18.9397 7.353 19.2286 7.1494 19.4748 6.88898C19.7257 6.62383 19.9199 6.32317 20.0572 5.98699C20.1992 5.65082 20.2679 5.29571 20.2631 4.92165C20.2631 4.42449 20.1448 3.96521 19.908 3.54381C19.676 3.12241 19.3564 2.78387 18.9492 2.52819C18.5468 2.27251 18.0851 2.14466 17.5643 2.14466Z" fill="white"/>
</svg>
