<svg width="24" height="15" viewBox="0 0 24 15" fill="none" xmlns="http://www.w3.org/2000/svg">
<path id="33" d="M5.33407 14.943C4.31135 14.943 3.40226 14.7678 2.6068 14.4174C1.81608 14.0671 1.19108 13.5794 0.7318 12.9544C0.27252 12.3294 0.0286755 11.6073 0.000266403 10.7882H2.67072C2.6944 11.1812 2.8246 11.5244 3.06135 11.818C3.29809 12.1068 3.61296 12.3317 4.00595 12.4927C4.39894 12.6537 4.83928 12.7342 5.32697 12.7342C5.8478 12.7342 6.30945 12.6442 6.71191 12.4643C7.11438 12.2797 7.42924 12.024 7.65652 11.6973C7.88379 11.3706 7.99506 10.9941 7.99032 10.568C7.99506 10.1277 7.88142 9.73941 7.64941 9.40323C7.41741 9.06706 7.08123 8.80427 6.64089 8.61488C6.20529 8.42549 5.67972 8.33079 5.06419 8.33079H3.77868V6.29954H5.06419C5.57082 6.29954 6.01352 6.21194 6.39231 6.03675C6.77583 5.86156 7.0765 5.61535 7.2943 5.29812C7.5121 4.97615 7.61864 4.60446 7.6139 4.18306C7.61864 3.77113 7.52631 3.41365 7.33691 3.11062C7.15226 2.80285 6.88947 2.56374 6.54856 2.39329C6.21239 2.22283 5.81703 2.13761 5.36248 2.13761C4.91741 2.13761 4.50548 2.2181 4.12669 2.37908C3.7479 2.54007 3.4425 2.76971 3.21049 3.068C2.97849 3.36156 2.85538 3.71194 2.84118 4.11914H0.305664C0.324603 3.30475 0.558978 2.58978 1.00879 1.97425C1.46333 1.35399 2.0694 0.871034 2.82697 0.525391C3.58455 0.175011 4.43445 -0.000178099 5.37669 -0.000178099C6.34733 -0.000178099 7.19013 0.182114 7.9051 0.546697C8.62479 0.906545 9.18114 1.39187 9.57413 2.00266C9.96712 2.61346 10.1636 3.28817 10.1636 4.02681C10.1684 4.84594 9.92688 5.53249 9.43919 6.08647C8.95623 6.64045 8.32176 7.00266 7.53578 7.17312V7.28675C8.55851 7.4288 9.34212 7.80759 9.88663 8.42312C10.4359 9.03391 10.7081 9.79386 10.7034 10.7029C10.7034 11.5173 10.4714 12.2465 10.0074 12.8904C9.54809 13.5297 8.91362 14.0315 8.10396 14.3961C7.29904 14.7607 6.37574 14.943 5.33407 14.943ZM18.3614 14.943C17.3387 14.943 16.4296 14.7678 15.6341 14.4174C14.8434 14.0671 14.2184 13.5794 13.7591 12.9544C13.2999 12.3294 13.056 11.6073 13.0276 10.7882H15.6981C15.7217 11.1812 15.8519 11.5244 16.0887 11.818C16.3254 12.1068 16.6403 12.3317 17.0333 12.4927C17.4263 12.6537 17.8666 12.7342 18.3543 12.7342C18.8751 12.7342 19.3368 12.6442 19.7393 12.4643C20.1417 12.2797 20.4566 12.024 20.6839 11.6973C20.9111 11.3706 21.0224 10.9941 21.0177 10.568C21.0224 10.1277 20.9088 9.73941 20.6768 9.40323C20.4448 9.06706 20.1086 8.80427 19.6682 8.61488C19.2326 8.42549 18.7071 8.33079 18.0915 8.33079H16.806V6.29954H18.0915C18.5982 6.29954 19.0409 6.21194 19.4197 6.03675C19.8032 5.86156 20.1038 5.61535 20.3216 5.29812C20.5394 4.97615 20.646 4.60446 20.6412 4.18306C20.646 3.77113 20.5537 3.41365 20.3643 3.11062C20.1796 2.80285 19.9168 2.56374 19.5759 2.39329C19.2397 2.22283 18.8444 2.13761 18.3898 2.13761C17.9448 2.13761 17.5328 2.2181 17.154 2.37908C16.7752 2.54007 16.4698 2.76971 16.2378 3.068C16.0058 3.36156 15.8827 3.71194 15.8685 4.11914H13.333C13.3519 3.30475 13.5863 2.58978 14.0361 1.97425C14.4907 1.35399 15.0967 0.871034 15.8543 0.525391C16.6119 0.175011 17.4618 -0.000178099 18.404 -0.000178099C19.3747 -0.000178099 20.2175 0.182114 20.9324 0.546697C21.6521 0.906545 22.2085 1.39187 22.6015 2.00266C22.9945 2.61346 23.191 3.28817 23.191 4.02681C23.1957 4.84594 22.9542 5.53249 22.4665 6.08647C21.9836 6.64045 21.3491 7.00266 20.5631 7.17312V7.28675C21.5858 7.4288 22.3695 7.80759 22.914 8.42312C23.4632 9.03391 23.7355 9.79386 23.7307 10.7029C23.7307 11.5173 23.4987 12.2465 23.0347 12.8904C22.5754 13.5297 21.941 14.0315 21.1313 14.3961C20.3264 14.7607 19.4031 14.943 18.3614 14.943Z" fill="white"/>
</svg>
