<svg width="24" height="15" viewBox="0 0 24 15" fill="none" xmlns="http://www.w3.org/2000/svg">
<path id="36" d="M5.33407 14.943C4.31135 14.943 3.40226 14.7678 2.6068 14.4174C1.81608 14.0671 1.19108 13.5794 0.7318 12.9544C0.27252 12.3294 0.0286755 11.6073 0.000266403 10.7882H2.67072C2.6944 11.1812 2.8246 11.5244 3.06135 11.818C3.29809 12.1068 3.61296 12.3317 4.00595 12.4927C4.39894 12.6537 4.83928 12.7342 5.32697 12.7342C5.8478 12.7342 6.30945 12.6442 6.71191 12.4643C7.11438 12.2797 7.42924 12.024 7.65652 11.6973C7.88379 11.3706 7.99506 10.9941 7.99032 10.568C7.99506 10.1277 7.88142 9.73941 7.64941 9.40323C7.41741 9.06706 7.08123 8.80427 6.64089 8.61488C6.20529 8.42549 5.67972 8.33079 5.06419 8.33079H3.77868V6.29954H5.06419C5.57082 6.29954 6.01352 6.21194 6.39231 6.03675C6.77583 5.86156 7.0765 5.61535 7.2943 5.29812C7.5121 4.97615 7.61864 4.60446 7.6139 4.18306C7.61864 3.77113 7.52631 3.41365 7.33691 3.11062C7.15226 2.80285 6.88947 2.56374 6.54856 2.39329C6.21239 2.22283 5.81703 2.13761 5.36248 2.13761C4.91741 2.13761 4.50548 2.2181 4.12669 2.37908C3.7479 2.54007 3.4425 2.76971 3.21049 3.068C2.97849 3.36156 2.85538 3.71194 2.84118 4.11914H0.305664C0.324603 3.30475 0.558978 2.58978 1.00879 1.97425C1.46333 1.35399 2.0694 0.871034 2.82697 0.525391C3.58455 0.175011 4.43445 -0.000178099 5.37669 -0.000178099C6.34733 -0.000178099 7.19013 0.182114 7.9051 0.546697C8.62479 0.906545 9.18114 1.39187 9.57413 2.00266C9.96712 2.61346 10.1636 3.28817 10.1636 4.02681C10.1684 4.84594 9.92688 5.53249 9.43919 6.08647C8.95623 6.64045 8.32176 7.00266 7.53578 7.17312V7.28675C8.55851 7.4288 9.34212 7.80759 9.88663 8.42312C10.4359 9.03391 10.7081 9.79386 10.7034 10.7029C10.7034 11.5173 10.4714 12.2465 10.0074 12.8904C9.54809 13.5297 8.91362 14.0315 8.10396 14.3961C7.29904 14.7607 6.37574 14.943 5.33407 14.943ZM18.468 14.943C17.7719 14.9383 17.0925 14.8175 16.4296 14.5808C15.7667 14.3393 15.1701 13.9487 14.6398 13.4089C14.1095 12.8644 13.6881 12.1423 13.3756 11.2427C13.0631 10.3384 12.9092 9.21857 12.914 7.88335C12.914 6.63808 13.0465 5.52776 13.3117 4.55238C13.5769 3.577 13.958 2.75314 14.4552 2.08079C14.9523 1.4037 15.5513 0.887606 16.252 0.532492C16.9575 0.177379 17.7459 -0.000178099 18.6171 -0.000178099C19.5309 -0.000178099 20.3406 0.179746 21.0461 0.539594C21.7563 0.899443 22.3292 1.39187 22.7648 2.01687C23.2004 2.63713 23.4703 3.33789 23.5745 4.11914H20.9822C20.8496 3.56043 20.5773 3.11535 20.1654 2.78391C19.7582 2.44774 19.2421 2.27965 18.6171 2.27965C17.6086 2.27965 16.8321 2.71763 16.2876 3.59357C15.7478 4.46952 15.4755 5.67217 15.4708 7.20153H15.5702C15.8022 6.78486 16.1029 6.42738 16.4722 6.12908C16.8415 5.83079 17.2582 5.60115 17.7222 5.44016C18.191 5.27444 18.6858 5.19158 19.2066 5.19158C20.0589 5.19158 20.8235 5.39518 21.5006 5.80238C22.1824 6.20958 22.7222 6.77066 23.1199 7.48562C23.5177 8.19585 23.7142 9.01024 23.7094 9.9288C23.7142 10.8852 23.4964 11.7446 23.056 12.5069C22.6157 13.2645 22.0025 13.8611 21.2165 14.2967C20.4305 14.7323 19.5144 14.9477 18.468 14.943ZM18.4537 12.8123C18.9698 12.8123 19.4315 12.6868 19.8387 12.4359C20.2459 12.185 20.5679 11.8464 20.8046 11.4203C21.0413 10.9941 21.1573 10.5159 21.1526 9.98562C21.1573 9.46478 21.0437 8.99367 20.8117 8.57227C20.5844 8.15086 20.2696 7.81706 19.8671 7.57085C19.4646 7.32463 19.0054 7.20153 18.4893 7.20153C18.1057 7.20153 17.7483 7.27492 17.4168 7.4217C17.0854 7.56848 16.7965 7.77208 16.5503 8.03249C16.3041 8.28817 16.11 8.58647 15.968 8.92738C15.8306 9.26355 15.7596 9.6234 15.7549 10.0069C15.7596 10.5136 15.878 10.9799 16.11 11.4061C16.342 11.8322 16.6616 12.1731 17.0688 12.4288C17.476 12.6845 17.9376 12.8123 18.4537 12.8123Z" fill="white"/>
</svg>
