<svg width="24" height="15" viewBox="0 0 24 15" fill="none" xmlns="http://www.w3.org/2000/svg">
<path id="38" d="M5.33407 14.943C4.31135 14.943 3.40226 14.7678 2.6068 14.4174C1.81608 14.0671 1.19108 13.5794 0.7318 12.9544C0.27252 12.3294 0.0286755 11.6073 0.000266403 10.7882H2.67072C2.6944 11.1812 2.8246 11.5244 3.06135 11.818C3.29809 12.1068 3.61296 12.3317 4.00595 12.4927C4.39894 12.6537 4.83928 12.7342 5.32697 12.7342C5.8478 12.7342 6.30945 12.6442 6.71191 12.4643C7.11438 12.2797 7.42924 12.024 7.65652 11.6973C7.88379 11.3706 7.99506 10.9941 7.99032 10.568C7.99506 10.1277 7.88142 9.73941 7.64941 9.40323C7.41741 9.06706 7.08123 8.80427 6.64089 8.61488C6.20529 8.42549 5.67972 8.33079 5.06419 8.33079H3.77868V6.29954H5.06419C5.57082 6.29954 6.01352 6.21194 6.39231 6.03675C6.77583 5.86156 7.0765 5.61535 7.2943 5.29812C7.5121 4.97615 7.61864 4.60446 7.6139 4.18306C7.61864 3.77113 7.52631 3.41365 7.33691 3.11062C7.15226 2.80285 6.88947 2.56374 6.54856 2.39329C6.21239 2.22283 5.81703 2.13761 5.36248 2.13761C4.91741 2.13761 4.50548 2.2181 4.12669 2.37908C3.7479 2.54007 3.4425 2.76971 3.21049 3.068C2.97849 3.36156 2.85538 3.71194 2.84118 4.11914H0.305664C0.324603 3.30475 0.558978 2.58978 1.00879 1.97425C1.46333 1.35399 2.0694 0.871034 2.82697 0.525391C3.58455 0.175011 4.43445 -0.000178099 5.37669 -0.000178099C6.34733 -0.000178099 7.19013 0.182114 7.9051 0.546697C8.62479 0.906545 9.18114 1.39187 9.57413 2.00266C9.96712 2.61346 10.1636 3.28817 10.1636 4.02681C10.1684 4.84594 9.92688 5.53249 9.43919 6.08647C8.95623 6.64045 8.32176 7.00266 7.53578 7.17312V7.28675C8.55851 7.4288 9.34212 7.80759 9.88663 8.42312C10.4359 9.03391 10.7081 9.79386 10.7034 10.7029C10.7034 11.5173 10.4714 12.2465 10.0074 12.8904C9.54809 13.5297 8.91362 14.0315 8.10396 14.3961C7.29904 14.7607 6.37574 14.943 5.33407 14.943ZM18.3117 14.943C17.2558 14.943 16.3183 14.7654 15.4992 14.4103C14.6848 14.0552 14.0456 13.5699 13.5816 12.9544C13.1223 12.3341 12.895 11.631 12.8998 10.845C12.895 10.2342 13.0276 9.67312 13.2975 9.16175C13.5674 8.65039 13.932 8.22425 14.3912 7.88335C14.8553 7.5377 15.3714 7.31753 15.9395 7.22283V7.1234C15.1914 6.95768 14.5854 6.57653 14.1214 5.97994C13.6621 5.37861 13.4348 4.68495 13.4395 3.89897C13.4348 3.15086 13.6431 2.48325 14.0645 1.89613C14.4859 1.30901 15.0636 0.84736 15.7975 0.511186C16.5314 0.170276 17.3695 -0.000178099 18.3117 -0.000178099C19.2445 -0.000178099 20.0754 0.170276 20.8046 0.511186C21.5385 0.84736 22.1162 1.30901 22.5376 1.89613C22.9637 2.48325 23.1768 3.15086 23.1768 3.89897C23.1768 4.68495 22.9424 5.37861 22.4736 5.97994C22.0096 6.57653 21.4107 6.95768 20.6768 7.1234V7.22283C21.2449 7.31753 21.7563 7.5377 22.2108 7.88335C22.6701 8.22425 23.0347 8.65039 23.3046 9.16175C23.5792 9.67312 23.7165 10.2342 23.7165 10.845C23.7165 11.631 23.4845 12.3341 23.0205 12.9544C22.5565 13.5699 21.9173 14.0552 21.1029 14.4103C20.2932 14.7654 19.3628 14.943 18.3117 14.943ZM18.3117 12.9118C18.8562 12.9118 19.3297 12.8194 19.7322 12.6348C20.1346 12.4454 20.4471 12.1802 20.6697 11.8393C20.8922 11.4984 21.0058 11.1054 21.0106 10.6603C21.0058 10.1963 20.8851 9.78675 20.6483 9.43164C20.4163 9.07179 20.0967 8.79007 19.6895 8.58647C19.2871 8.38287 18.8278 8.28107 18.3117 8.28107C17.7909 8.28107 17.3269 8.38287 16.9197 8.58647C16.5125 8.79007 16.1905 9.07179 15.9537 9.43164C15.7217 9.78675 15.6081 10.1963 15.6128 10.6603C15.6081 11.1054 15.717 11.4984 15.9395 11.8393C16.1621 12.1755 16.4746 12.4383 16.877 12.6277C17.2842 12.8171 17.7625 12.9118 18.3117 12.9118ZM18.3117 6.28533C18.7568 6.28533 19.1498 6.19537 19.4907 6.01545C19.8363 5.83552 20.1086 5.58458 20.3074 5.26261C20.5063 4.94064 20.6081 4.56895 20.6128 4.14755C20.6081 3.73088 20.5087 3.3663 20.3145 3.0538C20.1204 2.73656 19.8505 2.49272 19.5049 2.32227C19.1592 2.14708 18.7615 2.05948 18.3117 2.05948C17.8524 2.05948 17.4476 2.14708 17.0972 2.32227C16.7516 2.49272 16.4817 2.73656 16.2876 3.0538C16.0982 3.3663 16.0058 3.73088 16.0106 4.14755C16.0058 4.56895 16.1005 4.94064 16.2947 5.26261C16.4935 5.57984 16.7658 5.83079 17.1114 6.01545C17.4618 6.19537 17.8619 6.28533 18.3117 6.28533Z" fill="white"/>
</svg>
