<svg width="24" height="15" viewBox="0 0 24 15" fill="none" xmlns="http://www.w3.org/2000/svg">
<path id="39" d="M5.33407 14.9572C4.31135 14.9572 3.40226 14.782 2.6068 14.4316C1.81608 14.0812 1.19108 13.5935 0.7318 12.9685C0.27252 12.3435 0.0286755 11.6215 0.000266403 10.8023H2.67072C2.6944 11.1953 2.8246 11.5386 3.06135 11.8322C3.29809 12.121 3.61296 12.3459 4.00595 12.5069C4.39894 12.6679 4.83928 12.7484 5.32697 12.7484C5.8478 12.7484 6.30945 12.6584 6.71191 12.4785C7.11438 12.2938 7.42924 12.0381 7.65652 11.7114C7.88379 11.3847 7.99506 11.0083 7.99032 10.5822C7.99506 10.1418 7.88142 9.75357 7.64941 9.41739C7.41741 9.08122 7.08123 8.81843 6.64089 8.62904C6.20529 8.43965 5.67972 8.34495 5.06419 8.34495H3.77868V6.3137H5.06419C5.57082 6.3137 6.01352 6.2261 6.39231 6.05091C6.77583 5.87572 7.0765 5.62951 7.2943 5.31228C7.5121 4.99031 7.61864 4.61862 7.6139 4.19722C7.61864 3.78529 7.52631 3.42781 7.33691 3.12478C7.15226 2.81701 6.88947 2.5779 6.54856 2.40745C6.21239 2.23699 5.81703 2.15177 5.36248 2.15177C4.91741 2.15177 4.50548 2.23226 4.12669 2.39324C3.7479 2.55423 3.4425 2.78387 3.21049 3.08216C2.97849 3.37572 2.85538 3.7261 2.84118 4.1333H0.305664C0.324603 3.31891 0.558978 2.60394 1.00879 1.98841C1.46333 1.36815 2.0694 0.885194 2.82697 0.539551C3.58455 0.189172 4.43445 0.0139821 5.37669 0.0139821C6.34733 0.0139821 7.19013 0.196274 7.9051 0.560857C8.62479 0.920705 9.18114 1.40603 9.57413 2.01682C9.96712 2.62762 10.1636 3.30233 10.1636 4.04097C10.1684 4.8601 9.92688 5.54665 9.43919 6.10063C8.95623 6.65461 8.32176 7.01682 7.53578 7.18728V7.30091C8.55851 7.44296 9.34212 7.82175 9.88663 8.43728C10.4359 9.04807 10.7081 9.80802 10.7034 10.7171C10.7034 11.5315 10.4714 12.2607 10.0074 12.9046C9.54809 13.5438 8.91362 14.0457 8.10396 14.4103C7.29904 14.7749 6.37574 14.9572 5.33407 14.9572ZM18.191 0.0139821C18.887 0.0187171 19.5641 0.141823 20.2222 0.383301C20.8851 0.620043 21.4817 1.0083 22.012 1.54807C22.5423 2.08311 22.9637 2.80044 23.2762 3.70006C23.5887 4.59968 23.7449 5.71237 23.7449 7.03813C23.7497 8.28813 23.6171 9.40555 23.3472 10.3904C23.0821 11.3705 22.7009 12.1991 22.2037 12.8762C21.7066 13.5533 21.1076 14.0694 20.4069 14.4245C19.7061 14.7796 18.9178 14.9572 18.0418 14.9572C17.1233 14.9572 16.3089 14.7772 15.5986 14.4174C14.8931 14.0575 14.3226 13.5651 13.887 12.9401C13.4514 12.3151 13.1839 11.6002 13.0844 10.7952H15.6768C15.8093 11.3729 16.0792 11.8322 16.4864 12.1731C16.8983 12.5092 17.4168 12.6773 18.0418 12.6773C19.0503 12.6773 19.8269 12.2394 20.3714 11.3634C20.9159 10.4875 21.1881 9.27061 21.1881 7.71285H21.0887C20.8567 8.12951 20.556 8.48936 20.1867 8.79239C19.8174 9.09069 19.3983 9.32033 18.9296 9.48131C18.4656 9.6423 17.9732 9.72279 17.4523 9.72279C16.6001 9.72279 15.833 9.51919 15.1512 9.11199C14.4741 8.7048 13.9367 8.14608 13.539 7.43586C13.146 6.72563 12.9471 5.9136 12.9424 4.99978C12.9424 4.05281 13.1602 3.2029 13.5958 2.45006C14.0361 1.69249 14.6493 1.0959 15.4353 0.66029C16.2213 0.219948 17.1398 0.00451207 18.191 0.0139821ZM18.1981 2.14466C17.6867 2.14466 17.2251 2.27014 16.8131 2.52108C16.4059 2.7673 16.084 3.10347 15.8472 3.52961C15.6152 3.95101 15.4992 4.42213 15.4992 4.94296C15.5039 5.45906 15.6199 5.92781 15.8472 6.34921C16.0792 6.77061 16.3941 7.10442 16.7918 7.35063C17.1943 7.59684 17.6536 7.71995 18.1697 7.71995C18.5532 7.71995 18.9107 7.64656 19.2421 7.49978C19.5735 7.353 19.8624 7.1494 20.1086 6.88898C20.3595 6.62383 20.5537 6.32317 20.691 5.98699C20.833 5.65082 20.9017 5.29571 20.8969 4.92165C20.8969 4.42449 20.7786 3.96521 20.5418 3.54381C20.3098 3.12241 19.9902 2.78387 19.583 2.52819C19.1805 2.27251 18.7189 2.14466 18.1981 2.14466Z" fill="white"/>
</svg>
