<svg width="25" height="16" viewBox="0 0 25 16" fill="none" xmlns="http://www.w3.org/2000/svg">
<path id="40" d="M-0.000443831 12.0453V9.95011L6.17143 0.198686H7.91859V3.18164H6.85325L2.69842 9.76545V9.87908H11.3135V12.0453H-0.000443831ZM6.93848 14.7441V11.4061L6.96689 10.4686V0.198686H9.45268V14.7441H6.93848ZM18.9591 15.0211C17.7896 15.0211 16.7858 14.7252 15.9477 14.1333C15.1144 13.5368 14.4728 12.6774 14.023 11.5552C13.5779 10.4283 13.3554 9.07179 13.3554 7.48562C13.3601 5.89944 13.585 4.55001 14.0301 3.43732C14.4799 2.3199 15.1215 1.46763 15.9548 0.880504C16.7929 0.293383 17.7943 -0.000178099 18.9591 -0.000178099C20.1238 -0.000178099 21.1253 0.293383 21.9633 0.880504C22.8014 1.46763 23.443 2.3199 23.8881 3.43732C24.3379 4.55475 24.5628 5.90418 24.5628 7.48562C24.5628 9.07653 24.3379 10.4354 23.8881 11.5623C23.443 12.6845 22.8014 13.5415 21.9633 14.1333C21.13 14.7252 20.1286 15.0211 18.9591 15.0211ZM18.9591 12.7981C19.8682 12.7981 20.5855 12.3507 21.1111 11.4558C21.6414 10.5562 21.9065 9.23278 21.9065 7.48562C21.9065 6.33031 21.7858 5.35967 21.5443 4.57369C21.3028 3.7877 20.9619 3.19584 20.5216 2.79812C20.0812 2.39566 19.5604 2.19442 18.9591 2.19442C18.0547 2.19442 17.3398 2.64423 16.8142 3.54386C16.2886 4.43874 16.0235 5.75266 16.0187 7.48562C16.014 8.64566 16.13 9.62103 16.3667 10.4118C16.6082 11.2025 16.9491 11.7991 17.3895 12.2015C17.8298 12.5993 18.353 12.7981 18.9591 12.7981Z" fill="white"/>
</svg>
