<svg width="24" height="15" viewBox="0 0 24 15" fill="none" xmlns="http://www.w3.org/2000/svg">
<path id="42" d="M-0.000443831 12.0453V9.95011L6.17143 0.198686H7.91859V3.18164H6.85325L2.69842 9.76545V9.87908H11.3135V12.0453H-0.000443831ZM6.93848 14.7441V11.4061L6.96689 10.4686V0.198686H9.45268V14.7441H6.93848ZM13.5827 14.7441V12.8407L18.6324 7.89045C19.1153 7.40276 19.5178 6.96952 19.8398 6.59073C20.1617 6.21194 20.4032 5.84499 20.5642 5.48988C20.7252 5.13477 20.8057 4.75598 20.8057 4.35352C20.8057 3.89423 20.7015 3.50124 20.4932 3.17454C20.2848 2.8431 19.9984 2.58742 19.6338 2.40749C19.2692 2.22757 18.8549 2.13761 18.3909 2.13761C17.9127 2.13761 17.4936 2.23704 17.1338 2.4359C16.7739 2.63003 16.4946 2.90702 16.2957 3.26687C16.1016 3.62672 16.0045 4.05522 16.0045 4.55238H13.4974C13.4974 3.62908 13.7081 2.82653 14.1295 2.14471C14.5509 1.46289 15.1309 0.934954 15.8696 0.560902C16.613 0.186849 17.4652 -0.000178099 18.4264 -0.000178099C19.4018 -0.000178099 20.2588 0.182114 20.9974 0.546697C21.7361 0.91128 22.309 1.41081 22.7162 2.04528C23.1281 2.67975 23.3341 3.40418 23.3341 4.21857C23.3341 4.76308 23.2299 5.29812 23.0216 5.82369C22.8132 6.34925 22.4463 6.93164 21.9207 7.57085C21.3999 8.21005 20.6684 8.9842 19.7261 9.89329L17.219 12.443V12.5424H23.5542V14.7441H13.5827Z" fill="white"/>
</svg>
