<svg width="25" height="15" viewBox="0 0 25 15" fill="none" xmlns="http://www.w3.org/2000/svg">
<path id="43" d="M-0.000443831 12.0453V9.95011L6.17143 0.198686H7.91859V3.18164H6.85325L2.69842 9.76545V9.87908H11.3135V12.0453H-0.000443831ZM6.93848 14.7441V11.4061L6.96689 10.4686V0.198686H9.45268V14.7441H6.93848ZM18.8028 14.943C17.7801 14.943 16.871 14.7678 16.0756 14.4174C15.2848 14.0671 14.6598 13.5794 14.2006 12.9544C13.7413 12.3294 13.4974 11.6073 13.469 10.7882H16.1395C16.1631 11.1812 16.2934 11.5244 16.5301 11.818C16.7668 12.1068 17.0817 12.3317 17.4747 12.4927C17.8677 12.6537 18.308 12.7342 18.7957 12.7342C19.3166 12.7342 19.7782 12.6442 20.1807 12.4643C20.5831 12.2797 20.898 12.024 21.1253 11.6973C21.3525 11.3706 21.4638 10.9941 21.4591 10.568C21.4638 10.1277 21.3502 9.73941 21.1182 9.40323C20.8862 9.06706 20.55 8.80427 20.1096 8.61488C19.674 8.42549 19.1485 8.33079 18.5329 8.33079H17.2474V6.29954H18.5329C19.0396 6.29954 19.4823 6.21194 19.8611 6.03675C20.2446 5.86156 20.5452 5.61535 20.7631 5.29812C20.9809 4.97615 21.0874 4.60446 21.0827 4.18306C21.0874 3.77113 20.9951 3.41365 20.8057 3.11062C20.621 2.80285 20.3582 2.56374 20.0173 2.39329C19.6811 2.22283 19.2858 2.13761 18.8312 2.13761C18.3862 2.13761 17.9742 2.2181 17.5954 2.37908C17.2166 2.54007 16.9113 2.76971 16.6792 3.068C16.4472 3.36156 16.3241 3.71194 16.3099 4.11914H13.7744C13.7934 3.30475 14.0277 2.58978 14.4775 1.97425C14.9321 1.35399 15.5381 0.871034 16.2957 0.525391C17.0533 0.175011 17.9032 -0.000178099 18.8454 -0.000178099C19.8161 -0.000178099 20.6589 0.182114 21.3738 0.546697C22.0935 0.906545 22.6499 1.39187 23.0429 2.00266C23.4359 2.61346 23.6324 3.28817 23.6324 4.02681C23.6371 4.84594 23.3956 5.53249 22.9079 6.08647C22.425 6.64045 21.7905 7.00266 21.0045 7.17312V7.28675C22.0273 7.4288 22.8109 7.80759 23.3554 8.42312C23.9046 9.03391 24.1769 9.79386 24.1721 10.7029C24.1721 11.5173 23.9401 12.2465 23.4761 12.8904C23.0168 13.5297 22.3824 14.0315 21.5727 14.3961C20.7678 14.7607 19.8445 14.943 18.8028 14.943Z" fill="white"/>
</svg>
