<svg width="24" height="15" viewBox="0 0 24 15" fill="none" xmlns="http://www.w3.org/2000/svg">
<path id="45" d="M-0.000443831 11.8465V9.75138L6.17143 -4.48227e-05H7.91859V2.98291H6.85325L2.69842 9.56672V9.68035H11.3135V11.8465H-0.000443831ZM6.93848 14.5454V11.2073L6.96689 10.2698V-4.48227e-05H9.45268V14.5454H6.93848ZM18.6395 14.7443C17.6925 14.7443 16.845 14.5667 16.0969 14.2116C15.3488 13.8518 14.7545 13.3593 14.3142 12.7343C13.8786 12.1093 13.6466 11.3944 13.6182 10.5894H16.175C16.2223 11.186 16.4804 11.6737 16.9491 12.0525C17.4179 12.4266 17.9813 12.6136 18.6395 12.6136C19.1556 12.6136 19.6149 12.4952 20.0173 12.2585C20.4198 12.0217 20.737 11.6927 20.969 11.2713C21.201 10.8499 21.3147 10.3693 21.3099 9.8295C21.3147 9.28026 21.1987 8.79257 20.9619 8.36643C20.7252 7.9403 20.4008 7.60649 19.9889 7.36501C19.577 7.1188 19.1035 6.99569 18.5684 6.99569C18.1328 6.99096 17.7043 7.07145 17.2829 7.23717C16.8615 7.40289 16.5277 7.62069 16.2815 7.89058L13.9023 7.49996L14.6622 -4.48227e-05H23.0997V2.20166H16.8426L16.4236 6.05819H16.5088C16.7787 5.74096 17.1598 5.47817 17.6523 5.26984C18.1447 5.05677 18.6845 4.95024 19.2716 4.95024C20.1523 4.95024 20.9382 5.15857 21.6295 5.57524C22.3208 5.98717 22.8653 6.55535 23.2631 7.27979C23.6608 8.00422 23.8596 8.83282 23.8596 9.76558C23.8596 10.7268 23.6371 11.5838 23.192 12.3366C22.7517 13.0847 22.1385 13.6742 21.3525 14.1051C20.5713 14.5312 19.6669 14.7443 18.6395 14.7443Z" fill="white"/>
</svg>
