<svg width="25" height="15" viewBox="0 0 25 15" fill="none" xmlns="http://www.w3.org/2000/svg">
<path id="46" d="M-0.000443831 12.0453V9.95011L6.17143 0.198686H7.91859V3.18164H6.85325L2.69842 9.76545V9.87908H11.3135V12.0453H-0.000443831ZM6.93848 14.7441V11.4061L6.96689 10.4686V0.198686H9.45268V14.7441H6.93848ZM18.9094 14.943C18.2133 14.9383 17.5339 14.8175 16.871 14.5808C16.2081 14.3393 15.6115 13.9487 15.0812 13.4089C14.5509 12.8644 14.1295 12.1423 13.817 11.2427C13.5045 10.3384 13.3506 9.21857 13.3554 7.88335C13.3554 6.63808 13.488 5.52776 13.7531 4.55238C14.0183 3.577 14.3994 2.75314 14.8966 2.08079C15.3937 1.4037 15.9927 0.887606 16.6934 0.532492C17.3989 0.177379 18.1873 -0.000178099 19.0585 -0.000178099C19.9723 -0.000178099 20.782 0.179746 21.4875 0.539594C22.1977 0.899443 22.7706 1.39187 23.2062 2.01687C23.6418 2.63713 23.9117 3.33789 24.0159 4.11914H21.4236C21.291 3.56043 21.0187 3.11535 20.6068 2.78391C20.1996 2.44774 19.6835 2.27965 19.0585 2.27965C18.05 2.27965 17.2735 2.71763 16.729 3.59357C16.1892 4.46952 15.9169 5.67217 15.9122 7.20153H16.0116C16.2436 6.78486 16.5443 6.42738 16.9136 6.12908C17.2829 5.83079 17.6996 5.60115 18.1636 5.44016C18.6324 5.27444 19.1272 5.19158 19.648 5.19158C20.5003 5.19158 21.2649 5.39518 21.942 5.80238C22.6238 6.20958 23.1636 6.77066 23.5613 7.48562C23.9591 8.19585 24.1556 9.01024 24.1508 9.9288C24.1556 10.8852 23.9378 11.7446 23.4974 12.5069C23.0571 13.2645 22.4439 13.8611 21.6579 14.2967C20.872 14.7323 19.9558 14.9477 18.9094 14.943ZM18.8952 12.8123C19.4113 12.8123 19.8729 12.6868 20.2801 12.4359C20.6873 12.185 21.0093 11.8464 21.246 11.4203C21.4827 10.9941 21.5988 10.5159 21.594 9.98562C21.5988 9.46478 21.4851 8.99367 21.2531 8.57227C21.0258 8.15086 20.711 7.81706 20.3085 7.57085C19.906 7.32463 19.4468 7.20153 18.9307 7.20153C18.5471 7.20153 18.1897 7.27492 17.8582 7.4217C17.5268 7.56848 17.238 7.77208 16.9917 8.03249C16.7455 8.28817 16.5514 8.58647 16.4094 8.92738C16.272 9.26355 16.201 9.6234 16.1963 10.0069C16.201 10.5136 16.3194 10.9799 16.5514 11.4061C16.7834 11.8322 17.103 12.1731 17.5102 12.4288C17.9174 12.6845 18.3791 12.8123 18.8952 12.8123Z" fill="white"/>
</svg>
