<svg width="25" height="15" viewBox="0 0 25 15" fill="none" xmlns="http://www.w3.org/2000/svg">
<path id="48" d="M-0.000443831 12.0453V9.95011L6.17143 0.198686L7.91859 0.198686V3.18164H6.85325L2.69842 9.76545V9.87908H11.3135V12.0453L-0.000443831 12.0453ZM6.93848 14.7441V11.4061L6.96689 10.4686V0.198686L9.45268 0.198686V14.7441H6.93848ZM18.7531 14.943C17.6972 14.943 16.7597 14.7654 15.9406 14.4103C15.1262 14.0552 14.487 13.5699 14.023 12.9544C13.5637 12.3341 13.3364 11.631 13.3412 10.845C13.3364 10.2342 13.469 9.67312 13.7389 9.16175C14.0088 8.65039 14.3734 8.22425 14.8327 7.88335C15.2967 7.5377 15.8128 7.31753 16.3809 7.22283V7.1234C15.6328 6.95768 15.0268 6.57653 14.5628 5.97994C14.1035 5.37861 13.8762 4.68495 13.8809 3.89897C13.8762 3.15086 14.0845 2.48325 14.5059 1.89613C14.9273 1.30901 15.505 0.84736 16.2389 0.511186C16.9728 0.170276 17.8109 -0.000178099 18.7531 -0.000178099C19.6859 -0.000178099 20.5168 0.170276 21.246 0.511186C21.9799 0.84736 22.5576 1.30901 22.979 1.89613C23.4051 2.48325 23.6182 3.15086 23.6182 3.89897C23.6182 4.68495 23.3838 5.37861 22.915 5.97994C22.451 6.57653 21.8521 6.95768 21.1182 7.1234V7.22283C21.6863 7.31753 22.1977 7.5377 22.6523 7.88335C23.1115 8.22425 23.4761 8.65039 23.746 9.16175C24.0206 9.67312 24.1579 10.2342 24.1579 10.845C24.1579 11.631 23.9259 12.3341 23.4619 12.9544C22.9979 13.5699 22.3587 14.0552 21.5443 14.4103C20.7346 14.7654 19.8042 14.943 18.7531 14.943ZM18.7531 12.9118C19.2976 12.9118 19.7711 12.8194 20.1736 12.6348C20.576 12.4454 20.8885 12.1802 21.1111 11.8393C21.3336 11.4984 21.4472 11.1054 21.452 10.6603C21.4472 10.1963 21.3265 9.78675 21.0898 9.43164C20.8577 9.07179 20.5381 8.79007 20.1309 8.58647C19.7285 8.38287 19.2692 8.28107 18.7531 8.28107C18.2323 8.28107 17.7683 8.38287 17.3611 8.58647C16.9539 8.79007 16.6319 9.07179 16.3952 9.43164C16.1631 9.78675 16.0495 10.1963 16.0542 10.6603C16.0495 11.1054 16.1584 11.4984 16.3809 11.8393C16.6035 12.1755 16.916 12.4383 17.3184 12.6277C17.7256 12.8171 18.2039 12.9118 18.7531 12.9118ZM18.7531 6.28533C19.1982 6.28533 19.5912 6.19537 19.9321 6.01545C20.2777 5.83552 20.55 5.58458 20.7488 5.26261C20.9477 4.94064 21.0495 4.56895 21.0542 4.14755C21.0495 3.73088 20.9501 3.3663 20.7559 3.0538C20.5618 2.73656 20.2919 2.49272 19.9463 2.32227C19.6006 2.14708 19.2029 2.05948 18.7531 2.05948C18.2938 2.05948 17.889 2.14708 17.5386 2.32227C17.193 2.49272 16.9231 2.73656 16.729 3.0538C16.5396 3.3663 16.4472 3.73088 16.452 4.14755C16.4472 4.56895 16.5419 4.94064 16.7361 5.26261C16.9349 5.57984 17.2072 5.83079 17.5528 6.01545C17.9032 6.19537 18.3033 6.28533 18.7531 6.28533Z" fill="white"/>
</svg>
