<svg width="25" height="15" viewBox="0 0 25 15" fill="none" xmlns="http://www.w3.org/2000/svg">
<path id="49" d="M-0.000443831 12.0594V9.96427L6.17143 0.212846L7.91859 0.212846V3.1958H6.85325L2.69842 9.77961V9.89324H11.3135V12.0594L-0.000443831 12.0594ZM6.93848 14.7583V11.4202L6.96689 10.4827V0.212846L9.45268 0.212846V14.7583H6.93848ZM18.6324 0.0139821C19.3284 0.0187171 20.0055 0.141823 20.6636 0.383301C21.3265 0.620043 21.9231 1.0083 22.4534 1.54807C22.9837 2.08311 23.4051 2.80044 23.7176 3.70006C24.0301 4.59968 24.1863 5.71237 24.1863 7.03813C24.1911 8.28813 24.0585 9.40555 23.7886 10.3904C23.5235 11.3705 23.1423 12.1991 22.6452 12.8762C22.148 13.5533 21.549 14.0694 20.8483 14.4245C20.1475 14.7796 19.3592 14.9572 18.4832 14.9572C17.5647 14.9572 16.7503 14.7772 16.04 14.4174C15.3345 14.0575 14.764 13.5651 14.3284 12.9401C13.8928 12.3151 13.6253 11.6002 13.5258 10.7952H16.1182C16.2507 11.3729 16.5206 11.8322 16.9278 12.1731C17.3398 12.5092 17.8582 12.6773 18.4832 12.6773C19.4917 12.6773 20.2683 12.2394 20.8128 11.3634C21.3573 10.4875 21.6295 9.27061 21.6295 7.71285H21.5301C21.2981 8.12951 20.9974 8.48936 20.6281 8.79239C20.2588 9.09069 19.8398 9.32033 19.371 9.48131C18.907 9.6423 18.4146 9.72279 17.8937 9.72279C17.0415 9.72279 16.2744 9.51919 15.5926 9.11199C14.9155 8.7048 14.3781 8.14608 13.9804 7.43586C13.5874 6.72563 13.3885 5.9136 13.3838 4.99978C13.3838 4.05281 13.6016 3.2029 14.0372 2.45006C14.4775 1.69249 15.0907 1.0959 15.8767 0.66029C16.6627 0.219948 17.5812 0.00451207 18.6324 0.0139821ZM18.6395 2.14466C18.1281 2.14466 17.6665 2.27014 17.2545 2.52108C16.8473 2.7673 16.5254 3.10347 16.2886 3.52961C16.0566 3.95101 15.9406 4.42213 15.9406 4.94296C15.9453 5.45906 16.0613 5.92781 16.2886 6.34921C16.5206 6.77061 16.8355 7.10442 17.2332 7.35063C17.6357 7.59684 18.095 7.71995 18.6111 7.71995C18.9946 7.71995 19.3521 7.64656 19.6835 7.49978C20.0149 7.353 20.3038 7.1494 20.55 6.88898C20.8009 6.62383 20.9951 6.32317 21.1324 5.98699C21.2744 5.65082 21.3431 5.29571 21.3383 4.92165C21.3383 4.42449 21.22 3.96521 20.9832 3.54381C20.7512 3.12241 20.4316 2.78387 20.0244 2.52819C19.622 2.27251 19.1603 2.14466 18.6395 2.14466Z" fill="white"/>
</svg>
