<svg width="11" height="15" viewBox="0 0 11 15" fill="none" xmlns="http://www.w3.org/2000/svg">
<path id="5" d="M5.02131 14.7443C4.07434 14.7443 3.2268 14.5667 2.47869 14.2116C1.73059 13.8518 1.13636 13.3593 0.696023 12.7343C0.260417 12.1093 0.0284092 11.3944 0 10.5894H2.55682C2.60417 11.186 2.86222 11.6737 3.33097 12.0525C3.79972 12.4266 4.36316 12.6136 5.02131 12.6136C5.53741 12.6136 5.99669 12.4952 6.39915 12.2585C6.80161 12.0217 7.11884 11.6927 7.35085 11.2713C7.58286 10.8499 7.6965 10.3693 7.69176 9.8295C7.6965 9.28026 7.58049 8.79257 7.34375 8.36643C7.10701 7.9403 6.78267 7.60649 6.37074 7.36501C5.95881 7.1188 5.48532 6.99569 4.95028 6.99569C4.51468 6.99096 4.08617 7.07145 3.66477 7.23717C3.24337 7.40289 2.90956 7.62069 2.66335 7.89058L0.284091 7.49996L1.04403 -4.48227e-05H9.48153V2.20166H3.22443L2.8054 6.05819H2.89063C3.16051 5.74096 3.54167 5.47817 4.03409 5.26984C4.52652 5.05677 5.06629 4.95024 5.65341 4.95024C6.53409 4.95024 7.32008 5.15857 8.01136 5.57524C8.70265 5.98717 9.24716 6.55535 9.64489 7.27979C10.0426 8.00422 10.2415 8.83282 10.2415 9.76558C10.2415 10.7268 10.0189 11.5838 9.57386 12.3366C9.13352 13.0847 8.52036 13.6742 7.73438 14.1051C6.95313 14.5312 6.04877 14.7443 5.02131 14.7443Z" fill="white"/>
</svg>
