<svg width="24" height="16" viewBox="0 0 24 16" fill="none" xmlns="http://www.w3.org/2000/svg">
<path id="50" d="M5.02131 14.943C4.07434 14.943 3.2268 14.7654 2.47869 14.4103C1.73059 14.0505 1.13636 13.5581 0.696023 12.9331C0.260417 12.3081 0.0284092 11.5931 0 10.7882L2.55682 10.7882C2.60417 11.3848 2.86222 11.8725 3.33097 12.2512C3.79972 12.6253 4.36316 12.8123 5.02131 12.8123C5.53741 12.8123 5.99669 12.694 6.39915 12.4572C6.80161 12.2205 7.11884 11.8914 7.35085 11.47C7.58286 11.0486 7.6965 10.568 7.69176 10.0282C7.6965 9.47899 7.58049 8.9913 7.34375 8.56516C7.10701 8.13903 6.78267 7.80522 6.37074 7.56374C5.95881 7.31753 5.48532 7.19442 4.95028 7.19442C4.51468 7.18969 4.08617 7.27018 3.66477 7.4359C3.24337 7.60162 2.90956 7.81942 2.66335 8.08931L0.284091 7.69869L1.04403 0.198686L9.48153 0.198686V2.40039H3.22443L2.8054 6.25692H2.89063C3.16051 5.93969 3.54167 5.67691 4.03409 5.46857C4.52652 5.2555 5.06629 5.14897 5.65341 5.14897C6.53409 5.14897 7.32008 5.3573 8.01136 5.77397C8.70265 6.1859 9.24716 6.75408 9.64489 7.47852C10.0426 8.20295 10.2415 9.03155 10.2415 9.96431C10.2415 10.9255 10.0189 11.7825 9.57386 12.5353C9.13352 13.2834 8.52036 13.8729 7.73438 14.3038C6.95313 14.7299 6.04877 14.943 5.02131 14.943ZM17.9972 15.0211C16.8277 15.0211 15.8239 14.7252 14.9858 14.1333C14.1525 13.5368 13.5109 12.6774 13.0611 11.5552C12.616 10.4283 12.3935 9.07179 12.3935 7.48562C12.3982 5.89944 12.6231 4.55001 13.0682 3.43732C13.518 2.3199 14.1596 1.46763 14.9929 0.880504C15.831 0.293383 16.8324 -0.000178099 17.9972 -0.000178099C19.1619 -0.000178099 20.1634 0.293383 21.0014 0.880504C21.8395 1.46763 22.4811 2.3199 22.9261 3.43732C23.3759 4.55475 23.6009 5.90418 23.6009 7.48562C23.6009 9.07653 23.3759 10.4354 22.9261 11.5623C22.4811 12.6845 21.8395 13.5415 21.0014 14.1333C20.1681 14.7252 19.1667 15.0211 17.9972 15.0211ZM17.9972 12.7981C18.9063 12.7981 19.6236 12.3507 20.1491 11.4558C20.6795 10.5562 20.9446 9.23278 20.9446 7.48562C20.9446 6.33031 20.8239 5.35967 20.5824 4.57369C20.3409 3.7877 20 3.19584 19.5597 2.79812C19.1193 2.39566 18.5985 2.19442 17.9972 2.19442C17.0928 2.19442 16.3778 2.64423 15.8523 3.54386C15.3267 4.43874 15.0616 5.75266 15.0568 7.48562C15.0521 8.64566 15.1681 9.62103 15.4048 10.4118C15.6463 11.2025 15.9872 11.7991 16.4276 12.2015C16.8679 12.5993 17.3911 12.7981 17.9972 12.7981Z" fill="white"/>
</svg>
