<svg width="23" height="15" viewBox="0 0 23 15" fill="none" xmlns="http://www.w3.org/2000/svg">
<path id="52" d="M5.02131 14.943C4.07434 14.943 3.2268 14.7654 2.47869 14.4103C1.73059 14.0505 1.13636 13.5581 0.696023 12.9331C0.260417 12.3081 0.0284092 11.5931 0 10.7882L2.55682 10.7882C2.60417 11.3848 2.86222 11.8725 3.33097 12.2512C3.79972 12.6253 4.36316 12.8123 5.02131 12.8123C5.53741 12.8123 5.99669 12.694 6.39915 12.4572C6.80161 12.2205 7.11884 11.8914 7.35085 11.47C7.58286 11.0486 7.6965 10.568 7.69176 10.0282C7.6965 9.47899 7.58049 8.9913 7.34375 8.56516C7.10701 8.13903 6.78267 7.80522 6.37074 7.56374C5.95881 7.31753 5.48532 7.19442 4.95028 7.19442C4.51468 7.18969 4.08617 7.27018 3.66477 7.4359C3.24337 7.60162 2.90956 7.81942 2.66335 8.08931L0.284091 7.69869L1.04403 0.198686L9.48153 0.198686V2.40039H3.22443L2.8054 6.25692H2.89063C3.16051 5.93969 3.54167 5.67691 4.03409 5.46857C4.52652 5.2555 5.06629 5.14897 5.65341 5.14897C6.53409 5.14897 7.32008 5.3573 8.01136 5.77397C8.70265 6.1859 9.24716 6.75408 9.64489 7.47852C10.0426 8.20295 10.2415 9.03155 10.2415 9.96431C10.2415 10.9255 10.0189 11.7825 9.57386 12.5353C9.13352 13.2834 8.52036 13.8729 7.73438 14.3038C6.95313 14.7299 6.04877 14.943 5.02131 14.943ZM12.6207 14.7441V12.8407L17.6705 7.89045C18.1534 7.40276 18.5559 6.96952 18.8778 6.59073C19.1998 6.21194 19.4413 5.84499 19.6023 5.48988C19.7633 5.13477 19.8438 4.75598 19.8438 4.35352C19.8438 3.89423 19.7396 3.50124 19.5313 3.17454C19.3229 2.8431 19.0365 2.58742 18.6719 2.40749C18.3073 2.22757 17.893 2.13761 17.429 2.13761C16.9508 2.13761 16.5317 2.23704 16.1719 2.4359C15.812 2.63003 15.5327 2.90702 15.3338 3.26687C15.1397 3.62672 15.0426 4.05522 15.0426 4.55238H12.5355C12.5355 3.62908 12.7462 2.82653 13.1676 2.14471C13.589 1.46289 14.169 0.934954 14.9077 0.560902C15.651 0.186849 16.5033 -0.000178099 17.4645 -0.000178099C18.4399 -0.000178099 19.2969 0.182114 20.0355 0.546697C20.7741 0.91128 21.3471 1.41081 21.7543 2.04528C22.1662 2.67975 22.3722 3.40418 22.3722 4.21857C22.3722 4.76308 22.268 5.29812 22.0597 5.82369C21.8513 6.34925 21.4844 6.93164 20.9588 7.57085C20.438 8.21005 19.7064 8.9842 18.7642 9.89329L16.2571 12.443V12.5424H22.5923V14.7441H12.6207Z" fill="white"/>
</svg>
