<svg width="11" height="15" viewBox="0 0 11 15" fill="none" xmlns="http://www.w3.org/2000/svg">
<path id="6" d="M5.56072 14.943C4.8647 14.9383 4.18525 14.8175 3.52237 14.5808C2.85949 14.3393 2.2629 13.9487 1.7326 13.4089C1.2023 12.8644 0.780895 12.1423 0.468395 11.2427C0.155895 10.3384 0.00201234 9.21857 0.00674719 7.88335C0.00674719 6.63808 0.139323 5.52776 0.404475 4.55238C0.669626 3.577 1.05078 2.75314 1.54794 2.08079C2.0451 1.4037 2.64406 0.887606 3.34482 0.532492C4.05031 0.177379 4.83866 -0.000178099 5.70987 -0.000178099C6.6237 -0.000178099 7.43336 0.179746 8.13885 0.539594C8.84908 0.899443 9.42199 1.39187 9.8576 2.01687C10.2932 2.63713 10.5631 3.33789 10.6673 4.11914H8.07493C7.94235 3.56043 7.6701 3.11535 7.25817 2.78391C6.85097 2.44774 6.33487 2.27965 5.70987 2.27965C4.70135 2.27965 3.92483 2.71763 3.38033 3.59357C2.84055 4.46952 2.5683 5.67217 2.56357 7.20153H2.663C2.895 6.78486 3.19567 6.42738 3.56499 6.12908C3.9343 5.83079 4.35097 5.60115 4.81499 5.44016C5.28374 5.27444 5.77853 5.19158 6.29936 5.19158C7.15163 5.19158 7.91631 5.39518 8.59339 5.80238C9.27521 6.20958 9.81499 6.77066 10.2127 7.48562C10.6104 8.19585 10.8069 9.01024 10.8022 9.9288C10.8069 10.8852 10.5891 11.7446 10.1488 12.5069C9.70845 13.2645 9.09529 13.8611 8.3093 14.2967C7.52332 14.7323 6.60713 14.9477 5.56072 14.943ZM5.54652 12.8123C6.06262 12.8123 6.52427 12.6868 6.93146 12.4359C7.33866 12.185 7.66063 11.8464 7.89737 11.4203C8.13411 10.9941 8.25012 10.5159 8.24538 9.98562C8.25012 9.46478 8.13648 8.99367 7.90447 8.57227C7.6772 8.15086 7.36233 7.81706 6.95987 7.57085C6.55741 7.32463 6.09813 7.20153 5.58203 7.20153C5.19851 7.20153 4.84103 7.27492 4.50959 7.4217C4.17815 7.56848 3.88932 7.77208 3.64311 8.03249C3.3969 8.28817 3.20277 8.58647 3.06072 8.92738C2.92341 9.26355 2.85239 9.6234 2.84766 10.0069C2.85239 10.5136 2.97076 10.9799 3.20277 11.4061C3.43478 11.8322 3.75438 12.1731 4.16158 12.4288C4.56877 12.6845 5.03042 12.8123 5.54652 12.8123Z" fill="white"/>
</svg>
