<svg width="11" height="15" viewBox="0 0 11 15" fill="none" xmlns="http://www.w3.org/2000/svg">
<path id="8" d="M5.41912 14.943C4.36325 14.943 3.42575 14.7654 2.60662 14.4103C1.79223 14.0552 1.15302 13.5699 0.689009 12.9544C0.229729 12.3341 0.00245625 11.631 0.00719109 10.845C0.00245625 10.2342 0.135032 9.67312 0.404918 9.16175C0.674805 8.65039 1.03939 8.22425 1.49867 7.88335C1.96268 7.5377 2.47878 7.31753 3.04696 7.22283V7.1234C2.29886 6.95768 1.6928 6.57653 1.22878 5.97994C0.769502 5.37861 0.542229 4.68495 0.546964 3.89897C0.542229 3.15086 0.750562 2.48325 1.17196 1.89613C1.59337 1.30901 2.17102 0.84736 2.90492 0.511186C3.63882 0.170276 4.47689 -0.000178099 5.41912 -0.000178099C6.35189 -0.000178099 7.18285 0.170276 7.91202 0.511186C8.64592 0.84736 9.22357 1.30901 9.64498 1.89613C10.0711 2.48325 10.2842 3.15086 10.2842 3.89897C10.2842 4.68495 10.0498 5.37861 9.58105 5.97994C9.11704 6.57653 8.51808 6.95768 7.78418 7.1234V7.22283C8.35236 7.31753 8.86373 7.5377 9.31827 7.88335C9.77755 8.22425 10.1421 8.65039 10.412 9.16175C10.6866 9.67312 10.824 10.2342 10.824 10.845C10.824 11.631 10.5919 12.3341 10.1279 12.9544C9.66391 13.5699 9.02471 14.0552 8.21032 14.4103C7.40066 14.7654 6.47026 14.943 5.41912 14.943ZM5.41912 12.9118C5.96363 12.9118 6.43712 12.8194 6.83958 12.6348C7.24204 12.4454 7.55454 12.1802 7.77708 11.8393C7.99962 11.4984 8.11325 11.1054 8.11799 10.6603C8.11325 10.1963 7.99251 9.78675 7.75577 9.43164C7.52376 9.07179 7.20416 8.79007 6.79696 8.58647C6.3945 8.38287 5.93522 8.28107 5.41912 8.28107C4.89829 8.28107 4.43427 8.38287 4.02708 8.58647C3.61988 8.79007 3.29791 9.07179 3.06117 9.43164C2.82916 9.78675 2.71552 10.1963 2.72026 10.6603C2.71552 11.1054 2.82443 11.4984 3.04696 11.8393C3.2695 12.1755 3.582 12.4383 3.98446 12.6277C4.39166 12.8171 4.86988 12.9118 5.41912 12.9118ZM5.41912 6.28533C5.8642 6.28533 6.25719 6.19537 6.5981 6.01545C6.94374 5.83552 7.216 5.58458 7.41486 5.26261C7.61373 4.94064 7.71552 4.56895 7.72026 4.14755C7.71552 3.73088 7.61609 3.3663 7.42196 3.0538C7.22784 2.73656 6.95795 2.49272 6.6123 2.32227C6.26666 2.14708 5.86893 2.05948 5.41912 2.05948C4.95984 2.05948 4.55501 2.14708 4.20463 2.32227C3.85899 2.49272 3.5891 2.73656 3.39498 3.0538C3.20558 3.3663 3.11325 3.73088 3.11799 4.14755C3.11325 4.56895 3.20795 4.94064 3.40208 5.26261C3.60094 5.57984 3.8732 5.83079 4.21884 6.01545C4.56922 6.19537 4.96931 6.28533 5.41912 6.28533Z" fill="white"/>
</svg>
