<svg width="11" height="15" viewBox="0 0 11 15" fill="none" xmlns="http://www.w3.org/2000/svg">
<path id="9" d="M5.24858 0.0139821C5.9446 0.0187171 6.62169 0.141823 7.27983 0.383301C7.94271 0.620043 8.5393 1.0083 9.0696 1.54807C9.59991 2.08311 10.0213 2.80044 10.3338 3.70006C10.6463 4.59968 10.8026 5.71237 10.8026 7.03813C10.8073 8.28813 10.6747 9.40555 10.4048 10.3904C10.1397 11.3705 9.75852 12.1991 9.26136 12.8762C8.7642 13.5533 8.16525 14.0694 7.46449 14.4245C6.76373 14.7796 5.97538 14.9572 5.09943 14.9572C4.18087 14.9572 3.36648 14.7772 2.65625 14.4174C1.95076 14.0575 1.38021 13.5651 0.944602 12.9401C0.508996 12.3151 0.241477 11.6002 0.142045 10.7952H2.73438C2.86695 11.3729 3.13684 11.8322 3.54403 12.1731C3.95597 12.5092 4.47443 12.6773 5.09943 12.6773C6.10795 12.6773 6.88447 12.2394 7.42898 11.3634C7.97348 10.4875 8.24574 9.27061 8.24574 7.71285H8.14631C7.9143 8.12951 7.61364 8.48936 7.24432 8.79239C6.875 9.09069 6.45597 9.32033 5.98722 9.48131C5.5232 9.6423 5.03078 9.72279 4.50994 9.72279C3.65767 9.72279 2.89063 9.51919 2.20881 9.11199C1.53172 8.7048 0.994318 8.14608 0.596591 7.43586C0.203599 6.72563 0.00473489 5.9136 0 4.99978C0 4.05281 0.217803 3.2029 0.653409 2.45006C1.09375 1.69249 1.70691 1.0959 2.4929 0.66029C3.27888 0.219948 4.19744 0.00451207 5.24858 0.0139821ZM5.25568 2.14466C4.74432 2.14466 4.28267 2.27014 3.87074 2.52108C3.46354 2.7673 3.14157 3.10347 2.90483 3.52961C2.67282 3.95101 2.55682 4.42213 2.55682 4.94296C2.56155 5.45906 2.67756 5.92781 2.90483 6.34921C3.13684 6.77061 3.4517 7.10442 3.84943 7.35063C4.25189 7.59684 4.71117 7.71995 5.22727 7.71995C5.6108 7.71995 5.96828 7.64656 6.29972 7.49978C6.63116 7.353 6.91998 7.1494 7.16619 6.88898C7.41714 6.62383 7.61127 6.32317 7.74858 5.98699C7.89063 5.65082 7.95928 5.29571 7.95455 4.92165C7.95455 4.42449 7.83617 3.96521 7.59943 3.54381C7.36742 3.12241 7.04782 2.78387 6.64063 2.52819C6.23816 2.27251 5.77652 2.14466 5.25568 2.14466Z" fill="white"/>
</svg>
