<svg width="22" height="99" viewBox="0 0 22 99" fill="none" xmlns="http://www.w3.org/2000/svg">
<path id="ADMIN" d="M-1.32892e-06 4.21897L-1.14451e-06 0.000220704L21.8182 7.68133L21.8182 12.5606L-2.02976e-06 20.2524L-1.84535e-06 16.0336L17.3437 10.2062L17.3437 10.0357L-1.32892e-06 4.21897ZM8.55469 4.35747L8.55469 15.8631L5.37997 15.8631L5.37997 4.35747L8.55469 4.35747ZM-2.47855e-06 30.5196L-2.15537e-06 23.1261L21.8182 23.1261L21.8182 30.6687C21.8182 32.8349 21.3814 34.6957 20.5078 36.2511C19.6413 37.8136 18.3949 39.0139 16.7685 39.852C15.142 40.69 13.196 41.1091 10.9304 41.1091C8.65767 41.1091 6.70454 40.6865 5.07102 39.8413C3.4375 39.0032 2.18395 37.7923 1.31037 36.2085C0.436787 34.6318 -2.57541e-06 32.7355 -2.47855e-06 30.5196ZM3.41974 27.0785L3.41974 30.3278C3.41974 31.8477 3.69673 33.1155 4.25071 34.1311C4.81179 35.1467 5.6463 35.9102 6.75426 36.4216C7.86932 36.9329 9.26136 37.1886 10.9304 37.1886C12.5994 37.1886 13.9844 36.9329 15.0852 36.4216C16.1932 35.9102 17.0206 35.1538 17.5675 34.1524C18.1214 33.1581 18.3984 31.9223 18.3984 30.445L18.3984 27.0785L3.41974 27.0785ZM21.8182 44.8644L21.8182 49.701L6.00852 56.1783L6.00852 56.434L21.8182 62.9113L21.8182 67.7479L-4.10586e-06 67.7479L-3.94007e-06 63.9553L14.9893 63.9553L14.9893 63.7529L0.0639168 57.7231L0.0639169 54.8892L15.0213 48.8594L15.0213 48.657L-3.27137e-06 48.657L-3.10558e-06 44.8644L21.8182 44.8644ZM21.8182 76.0043L-4.46675e-06 76.0043L-4.29399e-06 72.0519L21.8182 72.0519L21.8182 76.0043ZM21.8182 98.214L-5.43757e-06 98.214L-5.2839e-06 94.6984L14.8615 84.4178L14.8615 84.2367L-4.8266e-06 84.2367L-4.65384e-06 80.2843L21.8182 80.2843L21.8182 83.8212L6.94602 94.0911L6.94602 94.2829L21.8182 94.2829L21.8182 98.214Z" fill="white"/>
</svg>
