<svg width="23" height="31" viewBox="0 0 23 31" fill="none" xmlns="http://www.w3.org/2000/svg">
<path id="Arrow 3" d="M12.5459 1.5C12.5459 0.671573 11.8743 3.62117e-08 11.0459 0C10.2175 -3.62117e-08 9.5459 0.671573 9.5459 1.5L12.5459 1.5ZM9.98524 30.5607C10.571 31.1464 11.5208 31.1464 12.1066 30.5607L21.6525 21.0147C22.2383 20.4289 22.2383 19.4792 21.6525 18.8934C21.0667 18.3076 20.117 18.3076 19.5312 18.8934L11.0459 27.3787L2.56062 18.8934C1.97483 18.3076 1.02508 18.3076 0.439296 18.8934C-0.146491 19.4792 -0.146491 20.4289 0.439296 21.0147L9.98524 30.5607ZM9.5459 1.5L9.5459 29.5L12.5459 29.5L12.5459 1.5L9.5459 1.5Z" fill="white"/>
</svg>
