<svg width="44" height="44" viewBox="0 0 44 44" fill="none" xmlns="http://www.w3.org/2000/svg">
<g id="Group 24">
<circle id="Ellipse 50" cx="22" cy="22" r="22" fill="#101010"/>
<g id="Solid/Devices/Camera">
<g id="Icon">
<path d="M20.096 22.8461C20.096 21.7947 20.9484 20.9423 21.9998 20.9423C23.0513 20.9423 23.9037 21.7947 23.9037 22.8461C23.9037 23.8976 23.0513 24.75 21.9998 24.75C20.9484 24.75 20.096 23.8976 20.096 22.8461Z" fill="#3A3A3A"/>
<path fill-rule="evenodd" clip-rule="evenodd" d="M18.1698 18.3128C18.1698 16.8443 19.3603 15.6538 20.8288 15.6538H23.1708C24.6393 15.6538 25.8298 16.8443 25.8298 18.3128C25.8298 18.3254 25.8394 18.3358 25.8519 18.3368L27.7385 18.49C28.5836 18.5587 29.2786 19.1836 29.4363 20.0167C29.8388 22.1425 29.8688 24.322 29.525 26.4581L29.4427 26.9693C29.2876 27.933 28.4945 28.6662 27.5216 28.7452L25.8781 28.8787C23.2968 29.0883 20.7028 29.0883 18.1216 28.8787L16.478 28.7452C15.5052 28.6662 14.712 27.933 14.5569 26.9693L14.4746 26.4581C14.1308 24.322 14.1608 22.1424 14.5633 20.0167C14.721 19.1836 15.416 18.5587 16.2611 18.49L18.1477 18.3368C18.1602 18.3358 18.1698 18.3254 18.1698 18.3128ZM21.9998 19.673C20.2474 19.673 18.8267 21.0937 18.8267 22.8461C18.8267 24.5986 20.2474 26.0192 21.9998 26.0192C23.7523 26.0192 25.1729 24.5986 25.1729 22.8461C25.1729 21.0937 23.7523 19.673 21.9998 19.673Z" fill="#3A3A3A"/>
</g>
</g>
</g>
</svg>
