<svg width="36" height="23" viewBox="0 0 36 23" fill="none" xmlns="http://www.w3.org/2000/svg">
<path id="PS" d="M-0.000355154 22.1167V0.298517H8.18146C9.8576 0.298517 11.2638 0.611017 12.4002 1.23602C13.5437 1.86102 14.4066 2.72039 14.989 3.81414C15.5785 4.90079 15.8732 6.13658 15.8732 7.52153C15.8732 8.92068 15.5785 10.1636 14.989 11.2502C14.3995 12.3369 13.5295 13.1927 12.3789 13.8177C11.2283 14.4356 9.81143 14.7445 8.1282 14.7445H2.70561V11.4952H7.59553C8.57564 11.4952 9.3782 11.3248 10.0032 10.9839C10.6282 10.643 11.0898 10.1742 11.3881 9.57764C11.6935 8.98105 11.8462 8.29568 11.8462 7.52153C11.8462 6.74738 11.6935 6.06556 11.3881 5.47607C11.0898 4.88659 10.6246 4.42849 9.99254 4.10178C9.36754 3.76798 8.56143 3.60107 7.57422 3.60107H3.95206V22.1167H-0.000355154ZM31.1635 6.29639C31.0641 5.36599 30.6451 4.64156 29.9064 4.12309C29.1749 3.60462 28.2232 3.34539 27.0513 3.34539C26.2275 3.34539 25.5208 3.46968 24.9313 3.71826C24.3418 3.96684 23.8908 4.3042 23.5783 4.73033C23.2658 5.15647 23.106 5.64298 23.0989 6.18985C23.0989 6.6444 23.2019 7.03857 23.4078 7.37238C23.6209 7.70619 23.9086 7.99028 24.2708 8.22465C24.633 8.45193 25.0343 8.64369 25.4746 8.79994C25.915 8.95619 26.3588 9.08758 26.8063 9.19411L28.8517 9.70548C29.6756 9.89724 30.4675 10.1565 31.2275 10.4832C31.9945 10.8099 32.6799 11.2218 33.2836 11.719C33.8944 12.2161 34.3773 12.8163 34.7324 13.5194C35.0875 14.2225 35.2651 15.0464 35.2651 15.991C35.2651 17.2694 34.9384 18.3951 34.285 19.3681C33.6316 20.334 32.687 21.0904 31.4512 21.6373C30.2225 22.1771 28.7346 22.447 26.9874 22.447C25.29 22.447 23.8162 22.1842 22.5662 21.6586C21.3233 21.133 20.3503 20.366 19.6472 19.3575C18.9512 18.3489 18.5748 17.1203 18.5179 15.6714H22.4064C22.4632 16.4313 22.6976 17.0634 23.1096 17.5677C23.5215 18.072 24.0577 18.4484 24.7182 18.697C25.3858 18.9455 26.1316 19.0698 26.9554 19.0698C27.8148 19.0698 28.5676 18.942 29.214 18.6863C29.8674 18.4235 30.3787 18.0613 30.748 17.5997C31.1174 17.1309 31.3056 16.584 31.3127 15.959C31.3056 15.3908 31.1387 14.9221 30.812 14.5528C30.4853 14.1764 30.0272 13.8639 29.4377 13.6153C28.8553 13.3596 28.1735 13.1323 27.3922 12.9335L24.91 12.2943C23.1131 11.8326 21.6926 11.133 20.6486 10.1955C19.6117 9.25093 19.0932 7.99738 19.0932 6.43488C19.0932 5.14937 19.4412 4.02366 20.1373 3.05775C20.8404 2.09184 21.7956 1.34255 23.003 0.80988C24.2104 0.270107 25.5776 0.000221133 27.1046 0.000221133C28.6529 0.000221133 30.0094 0.270107 31.1742 0.80988C32.3461 1.34255 33.2658 2.08474 33.9334 3.03644C34.601 3.98104 34.9455 5.06769 34.9668 6.29639H31.1635Z" fill="white"/>
</svg>
