<svg width="50" height="23" viewBox="0 0 50 23" fill="none" xmlns="http://www.w3.org/2000/svg">
<path id="WC" d="M6.15767 22.1167L0 0.298517H4.25071L8.18182 16.3319H8.38423L12.5817 0.298517H16.4489L20.657 16.3426H20.8487L24.7798 0.298517H29.0305L22.8729 22.1167L18.9737 22.1167L14.6058 6.80775H14.4354L10.0568 22.1167H6.15767ZM49.2747 7.66002H45.2903C45.1767 7.00661 44.9672 6.42778 44.6618 5.92352C44.3564 5.41215 43.9764 4.97891 43.5218 4.6238C43.0673 4.26869 42.5488 4.00235 41.9664 3.8248C41.3912 3.64014 40.7697 3.54781 40.1021 3.54781C38.916 3.54781 37.8649 3.8461 36.9487 4.44269C36.0325 5.03218 35.3152 5.89866 34.7967 7.04212C34.2782 8.17849 34.019 9.56698 34.019 11.2076C34.019 12.8766 34.2782 14.2829 34.7967 15.4264C35.3223 16.5627 36.0396 17.4221 36.9487 18.0045C37.8649 18.5798 38.9125 18.8674 40.0914 18.8674C40.7449 18.8674 41.3556 18.7822 41.9238 18.6117C42.4991 18.4342 43.014 18.1749 43.4686 17.834C43.9302 17.4931 44.3173 17.0741 44.6298 16.5769C44.9494 16.0798 45.1696 15.5116 45.2903 14.8724L49.2747 14.8937C49.1255 15.9306 48.8024 16.9036 48.3052 17.8127C47.8152 18.7218 47.1724 19.5244 46.377 20.2204C45.5815 20.9093 44.6511 21.4491 43.5858 21.8397C42.5204 22.2232 41.3379 22.415 40.0382 22.415C38.1206 22.415 36.4089 21.9711 34.9032 21.0833C33.3975 20.1955 32.2115 18.9136 31.345 17.2374C30.4785 15.5613 30.0453 13.5514 30.0453 11.2076C30.0453 8.85676 30.4821 6.84681 31.3556 5.17778C32.2292 3.50164 33.4189 2.21968 34.9245 1.3319C36.4302 0.444113 38.1348 0.000221133 40.0382 0.000221133C41.2527 0.000221133 42.3819 0.170676 43.426 0.511584C44.47 0.852494 45.4004 1.3532 46.2172 2.01372C47.0339 2.66712 47.7051 3.46968 48.2306 4.42139C48.7633 5.36599 49.1113 6.44553 49.2747 7.66002Z" fill="white"/>
</svg>
