<svg width="1320" height="618" viewBox="0 0 1320 618" fill="none" xmlns="http://www.w3.org/2000/svg">
<rect x="71" y="71" width="153" height="100" rx="10" fill="#4D4D4D"/>
<rect x="264" y="71.1438" width="128.948" height="100.046" rx="10" fill="#4D4D4D"/>
<rect x="476" y="71.3628" width="42.8175" height="42.8175" rx="10" fill="#149EF2"/>
<rect x="181.262" y="373.94" width="42.8175" height="42.8175" rx="10" fill="#FF64C4"/>
<rect x="181.262" y="459.575" width="42.8175" height="42.8175" rx="10" fill="#FF64C4"/>
<rect x="295.441" y="373.94" width="42.8175" height="42.8175" rx="10" fill="#FF64C4"/>
<rect x="295.441" y="459.575" width="42.8175" height="42.8175" rx="10" fill="#FF64C4"/>
<rect x="409.621" y="373.94" width="42.8175" height="42.8175" rx="10" fill="#FF64C4"/>
<rect x="409.621" y="459.575" width="42.8175" height="42.8175" rx="10" fill="#FF64C4"/>
<rect x="564.478" y="373.94" width="42.8175" height="42.8175" rx="10" fill="#FF64C4"/>
<rect x="564.478" y="459.575" width="42.8175" height="42.8175" rx="10" fill="#FF64C4"/>
<rect x="889.177" y="331.123" width="42.8175" height="42.8175" rx="10" transform="rotate(90 889.177 331.123)" fill="#FF64C4"/>
<rect x="1043.82" y="485" width="42.8175" height="42.8175" rx="10" transform="rotate(90 1043.82 485)" fill="#FF64C4"/>
<rect x="1043.82" y="548" width="42.8175" height="42.8175" rx="10" transform="rotate(90 1043.82 548)" fill="#149EF2"/>
<rect x="114.18" y="331.123" width="42.8175" height="42.8175" rx="10" transform="rotate(90 114.18 331.123)" fill="#FF64C4"/>
<rect x="678.657" y="373.94" width="42.8175" height="42.8175" rx="10" fill="#FF64C4"/>
<rect x="678.657" y="459.575" width="42.8175" height="42.8175" rx="10" fill="#FF64C4"/>
<rect x="889.177" y="445.302" width="42.8175" height="42.8175" rx="10" transform="rotate(90 889.177 445.302)" fill="#FF64C4"/>
<rect x="114.18" y="445.302" width="42.8175" height="42.8175" rx="10" transform="rotate(90 114.18 445.302)" fill="#FF64C4"/>
<rect x="658.725" y="71.3628" width="42.8175" height="42.8175" rx="10" fill="#149EF2"/>
<rect x="841.45" y="71.3628" width="42.8175" height="42.8175" rx="10" fill="#149EF2"/>
<rect x="573.09" y="71.3628" width="42.8175" height="42.8175" rx="10" fill="#149EF2"/>
<rect x="238.352" y="373.94" width="42.8175" height="42.8175" rx="10" fill="#FF64C4"/>
<rect x="238.352" y="459.575" width="42.8175" height="42.8175" rx="10" fill="#FF64C4"/>
<rect x="352.531" y="373.94" width="42.8175" height="42.8175" rx="10" fill="#FF64C4"/>
<rect x="352.531" y="459.575" width="42.8175" height="42.8175" rx="10" fill="#FF64C4"/>
<rect x="507.388" y="373.94" width="42.8175" height="42.8175" rx="10" fill="#FF64C4"/>
<rect x="507.388" y="459.575" width="42.8175" height="42.8175" rx="10" fill="#FF64C4"/>
<rect x="621.567" y="373.94" width="42.8175" height="42.8175" rx="10" fill="#FF64C4"/>
<rect x="621.567" y="459.575" width="42.8175" height="42.8175" rx="10" fill="#FF64C4"/>
<rect x="889.177" y="388.212" width="42.8175" height="42.8175" rx="10" transform="rotate(90 889.177 388.212)" fill="#FF64C4"/>
<rect x="114.18" y="388.212" width="42.8175" height="42.8175" rx="10" transform="rotate(90 114.18 388.212)" fill="#FF64C4"/>
<rect x="735.747" y="373.94" width="42.8175" height="42.8175" rx="10" fill="#FF64C4"/>
<rect x="735.747" y="459.575" width="42.8175" height="42.8175" rx="10" fill="#FF64C4"/>
<rect x="889.177" y="502.393" width="42.8175" height="42.8175" rx="10" transform="rotate(90 889.177 502.393)" fill="#FF64C4"/>
<rect x="114.18" y="502.393" width="42.8175" height="42.8175" rx="10" transform="rotate(90 114.18 502.393)" fill="#FF64C4"/>
<rect x="1205.31" y="331.123" width="42.8175" height="42.8175" rx="10" fill="#149EF2"/>
<rect x="1026.91" y="331.123" width="42.8175" height="42.8175" rx="10" fill="#149EF2"/>
<rect x="755.814" y="71.3628" width="42.8175" height="42.8175" rx="10" fill="#149EF2"/>
<rect x="938.539" y="71.3628" width="42.8175" height="42.8175" rx="10" fill="#149EF2"/>
<rect x="476" y="128.453" width="42.8175" height="42.8175" rx="10" fill="#149EF2"/>
<rect x="658.725" y="128.453" width="42.8175" height="42.8175" rx="10" fill="#149EF2"/>
<rect x="841.45" y="128.453" width="42.8175" height="42.8175" rx="10" fill="#149EF2"/>
<rect x="573.09" y="128.453" width="42.8175" height="42.8175" rx="10" fill="#149EF2"/>
<rect x="755.814" y="128.453" width="42.8175" height="42.8175" rx="10" fill="#149EF2"/>
<rect x="938.539" y="128.453" width="42.8175" height="42.8175" rx="10" fill="#149EF2"/>
<rect x="1023" y="71" width="225" height="100" rx="10" fill="#2636C0"/>
<rect x="1205.31" y="259.76" width="114.18" height="57.0901" rx="10" fill="#202020"/>
<rect x="1026.91" y="259.76" width="114.18" height="57.0901" rx="10" fill="#202020"/>
<rect x="903.489" y="388.212" width="416.044" height="57.0901" rx="10" fill="#202020"/>
<rect x="813.008" y="260" width="148" height="57" rx="10" fill="#202020"/>
<rect y="260" width="463" height="57" rx="10" fill="#202020"/>
<rect x="546" y="260" width="184" height="57" rx="10" fill="#202020"/>
<rect x="57.0898" width="171.27" height="57.0901" rx="10" transform="rotate(90 57.0898 0)" fill="#202020"/>
<rect x="463.09" width="171.27" height="57.0901" rx="10" transform="rotate(90 463.09 0)" fill="#202020"/>
<rect x="1319.49" width="445.302" height="57.09" rx="10" transform="rotate(90 1319.49 0)" fill="#202020"/>
<rect x="57.0898" y="259.76" width="358.24" height="57.09" rx="10" transform="rotate(90 57.0898 259.76)" fill="#202020"/>
<rect x="960.579" y="259.76" width="356.813" height="57.09" rx="10" transform="rotate(90 960.579 259.76)" fill="#202020"/>
<rect x="1141.09" y="259.76" width="185.543" height="57.0901" rx="10" transform="rotate(90 1141.09 259.76)" fill="#202020"/>
<rect width="1319.49" height="57.0901" rx="10" fill="#202020"/>
<rect y="559.483" width="960.54" height="57.0901" rx="10" fill="#202020"/>
<rect x="251.272" width="171.27" height="14.2725" rx="7.13625" transform="rotate(90 251.272 0)" fill="#202020"/>
<rect x="644.484" y="0.000488281" width="171.27" height="14.2725" rx="7.13625" transform="rotate(90 644.484 0.000488281)" fill="#202020"/>
<rect x="827.209" y="0.000488281" width="171.27" height="14.2725" rx="7.13625" transform="rotate(90 827.209 0.000488281)" fill="#202020"/>
<rect x="1009.92" y="0.000244141" width="171.27" height="14.2725" rx="7.13625" transform="rotate(90 1009.92 0.000244141)" fill="#202020"/>
<rect x="452.438" y="445.302" width="271.178" height="14.2725" rx="7.13625" transform="rotate(-180 452.438 445.302)" fill="#202020"/>
<rect x="778.604" y="445.302" width="271.178" height="14.2725" rx="7.13625" transform="rotate(-180 778.604 445.302)" fill="#202020"/>
</svg>
