<svg width="267" height="117" viewBox="0 0 267 117" fill="none" xmlns="http://www.w3.org/2000/svg">
<path d="M253.939 116.561C254.525 117.146 255.475 117.146 256.061 116.561L265.607 107.015C266.192 106.429 266.192 105.479 265.607 104.893C265.021 104.308 264.071 104.308 263.485 104.893L255 113.379L246.515 104.893C245.929 104.308 244.979 104.308 244.393 104.893C243.808 105.479 243.808 106.429 244.393 107.015L253.939 116.561ZM0 3H225V0H0V3ZM253.5 31.5V115.5H256.5V31.5H253.5ZM225 3C240.74 3 253.5 15.7599 253.5 31.5H256.5C256.5 14.103 242.397 0 225 0V3Z" fill="white"/>
</svg>
