<svg width="297" height="84" viewBox="0 0 297 84" fill="none" xmlns="http://www.w3.org/2000/svg">
<path d="M0.43934 70.9393C-0.146447 71.5251 -0.146447 72.4749 0.43934 73.0607L9.98528 82.6066C10.5711 83.1924 11.5208 83.1924 12.1066 82.6066C12.6924 82.0208 12.6924 81.0711 12.1066 80.4853L3.62132 72L12.1066 63.5147C12.6924 62.9289 12.6924 61.9792 12.1066 61.3934C11.5208 60.8076 10.5711 60.8076 9.98528 61.3934L0.43934 70.9393ZM1.5 73.5H265.5V70.5H1.5V73.5ZM297 42V0H294V42H297ZM265.5 73.5C282.897 73.5 297 59.397 297 42H294C294 57.7401 281.24 70.5 265.5 70.5V73.5Z" fill="white"/>
</svg>
